<?xml version="1.0" standalone="no"?>
<!DOCTYPE svg PUBLIC "-//W3C//DTD SVG 1.1//EN" "http://www.w3.org/Graphics/SVG/1.1/DTD/svg11.dtd" >
<svg xmlns="http://www.w3.org/2000/svg">
<metadata>Generated by IcoMoon</metadata>
<defs>
<font id="icomoon" horiz-adv-x="1024">
<font-face units-per-em="1024" ascent="960" descent="-64" />
<missing-glyph horiz-adv-x="1024" />
<glyph unicode="&#x20;" horiz-adv-x="512" d="" />
<glyph unicode="&#xe900;" glyph-name="collection" horiz-adv-x="1026" d="M829.725-40.050l-316.928 166.685-316.928-166.685 60.53 352.939-256.398 249.97 354.361 51.484 158.436 320.967 158.436-321.024 354.361-51.484-256.342-249.97 60.473-352.882zM512.797 174.819l260.267-136.875-49.721 289.849 210.546 205.255-290.987 42.268-130.105 263.623-130.105-263.623-291.044-42.268 210.546-205.255-49.721-289.849 260.324 136.875z" />
<glyph unicode="&#xe901;" glyph-name="return" d="M629.376 800l-341.376-352 42.624-43.968h0.064l298.688-307.968 42.624 43.968-298.688 307.968 298.688 307.968z" />
<glyph unicode="&#xe902;" glyph-name="share" d="M109.172 783.302c0 0 362.062 0.372 382.546 0 32.752-0.587 32.17 44.852 0 44.852-27.491 0-381.942 0.587-397.747 0-15.782-0.587-28.946-4.133-28.946-25.384 0-21.228 0-681.505 0-707.17 0-22.573 8.328-29.8 29.819-29.8 21.514 0 728.222 0 745.772 0s27.178 8.413 27.178 28.332c0 19.907 0 258.74 0 289.42 0 33.627-44.729 33.028-44.729 0 0-23.012 0-272.618 0-272.618l-713.893 0.012v672.356zM496.688 381.483c-0.291-27.733 35.975-27.145 40.363-11.212 4.365 15.932 40.631 301.513 356.197 273.487 0 0-95.233-119.456-111.218-139.815-15.984-20.381 18.29-47.618 34.073-27.834 15.805 19.784 133.313 167.062 133.313 167.062s16.789 14.148-0.314 34.225c-17.081 20.077-118.739 139.533-134.231 156.651-15.493 17.119-49.184-9.36-33.044-28.206s98.838-115.47 98.838-115.47c-335.13 13.866-383.687-281.154-383.977-308.887v0z" />
<glyph unicode="&#xe903;" glyph-name="audio" horiz-adv-x="1205" d="M995.037 488.52c-25.226 264.641-187.264 423.822-392.267 423.822-204.602 0-364.907-159.354-390.23-423.819l-75.507-0.003c-75.079 0-136.055-79.977-136.055-178.421v-195.27c0-98.445 60.975-178.55 136.055-178.55h98.579c9.957 0 19.503 4.913 26.646 13.628 6.961 8.72 10.892 20.521 10.892 32.873v210.515c0 4.002-0.211 228.743 0.079 235.281 11.815 266.684 150.802 406.131 329.541 406.131 179.459 0 329.564-143.728 329.396-407.995 0.168-6.087 0.168-190.18 0.168-226.147v-217.784c0-25.788 16.768-46.499 37.443-46.499h98.587c75.081 0 136.197 59.3 136.197 157.744v216.076c0 98.444-61.116 178.421-136.197 178.421l-73.327-0.003zM137.028 12.117c-33.537 0-74.672 55.040-74.672 102.257v196.915c0 47.23 41.135 105.386 74.672 105.386h75.512v-404.558h-75.512zM1083.944 2.46h-88.907v414.214l88.907 0.539c27.706-0.539 57.047-59.72 57.047-99.885v-228.323c0-25.731-8.206-86.545-57.047-86.545z" />
<glyph unicode="&#xe904;" glyph-name="(1)" horiz-adv-x="1515" d="M703.501 736l480.003-576h-959.997z" />
<glyph unicode="&#xe905;" glyph-name="consulted" horiz-adv-x="1126" d="M809.061 960c-96.864 0-186.921-47.538-246.197-125.921-59.248 78.398-149.288 125.921-246.204 125.921-174.604 0-316.66-151.945-316.66-338.733 0-111.429 50.879-189.599 91.777-252.406 118.866-182.422 417.732-409.456 430.391-419.022 12.199-9.228 26.456-13.838 40.681-13.838 14.257 0 28.494 4.61 40.677 13.838 12.674 9.567 311.553 236.6 430.386 419.022 40.919 62.815 91.813 140.978 91.813 252.406-0.001 186.788-142.060 338.733-316.665 338.733zM976.089 411.974c-113.139-173.706-413.25-400.582-413.25-400.582s-300.063 226.884-413.245 400.582c-41.74 64.129-79.115 125.083-79.115 209.292 0 145.428 110.21 263.357 246.18 263.357 100.488 0 186.755-64.497 225.020-156.831v0.457h0.105c2.855-9.634 11.164-16.651 21.063-16.651 9.928 0 18.244 7.025 21.076 16.651h0.286c38.361 92.062 124.508 156.373 224.851 156.373 135.942 0 246.184-117.93 246.184-263.357 0-84.21-37.379-145.164-79.155-209.292z" />
<glyph unicode="&#xe906;" glyph-name="video" d="M983.725 647.075c-25.766 60.918-62.648 115.623-109.621 162.595s-101.68 83.855-162.598 109.62c-63.080 26.68-130.077 40.208-199.128 40.208-69.049 0-136.044-13.528-199.125-40.208-60.919-25.766-115.624-62.647-162.597-109.619-46.974-46.973-83.857-101.678-109.623-162.595-26.682-63.082-40.21-130.078-40.21-199.13 0-69.050 13.529-136.046 40.21-199.128 25.767-60.918 62.649-115.624 109.622-162.597s101.679-83.856 162.597-109.621c63.080-26.681 130.076-40.21 199.126-40.21s136.045 13.529 199.127 40.21c60.919 25.766 115.625 62.648 162.598 109.621s83.856 101.679 109.621 162.598c26.681 63.080 40.21 130.076 40.21 199.127 0.001 69.052-13.528 136.047-40.209 199.129zM943.966 265.636c-23.59-55.773-57.366-105.866-100.389-148.89-43.022-43.022-93.116-76.798-148.89-100.388-57.731-24.417-119.069-36.799-182.31-36.799-63.24 0-124.578 12.381-182.309 36.799-55.773 23.59-105.867 57.366-148.89 100.388s-76.799 93.117-100.389 148.891c-24.418 57.731-36.8 119.069-36.8 182.31 0 63.242 12.381 124.581 36.8 182.311 23.59 55.773 57.366 105.866 100.389 148.888 43.022 43.022 93.116 76.797 148.889 100.386 57.733 24.416 119.070 36.798 182.31 36.798 63.242 0 124.58-12.381 182.311-36.799 55.773-23.589 105.866-57.364 148.89-100.386 43.022-43.022 76.798-93.115 100.388-148.888 24.417-57.731 36.799-119.069 36.799-182.312 0.001-63.24-12.38-124.578-36.799-182.309zM388.59 232.749l302.682 199.303-302.682 233.104z" />
<glyph unicode="&#xe907;" glyph-name="1" horiz-adv-x="1227" d="M613.506 160l-480.004 576h959.996z" />
<glyph unicode="&#xe908;" glyph-name="consulted2" d="M548.457 958.899c-126.944 0-246.294-49.371-336.046-139.032-89.772-89.664-139.222-208.868-139.222-335.658 0-92.388 21.561-185.245 66.133-236.41 13.752-19.681 5.141-71.99-24.396-119.352s-95.374-124.832-86.867-119.303c8.546 5.558 127.678 56.476 161.557 107.067s46.949 87.514 15.839 145.097c-43.251 66.31-66.133 143.373-66.133 222.902 0 225.331 183.531 408.639 409.136 408.639 225.607 0 409.137-183.307 409.137-408.639 0-225.328-183.531-408.637-409.137-408.637-74.703 0-147.792 20.285-211.355 58.666-49.282 21.92-124.691 0-173.264-32.617s-130.406-83.216-135.779-92.102c-5.719-9.45 80.37 26.979 161.557 47.331 51.715 12.964 82.002 20.872 113.263 20.872 26.479-2.149 158.794-68.203 245.577-68.203 126.945 0 246.277 49.371 336.048 139.034 89.772 89.662 139.222 208.849 139.222 335.658 0 126.789-49.449 245.993-139.221 335.637-89.772 89.664-209.084 139.053-336.048 139.053zM471.182 270.323c10.722 0 21.444 4.101 29.618 12.264l315.397 315.013c16.365 16.325 16.365 42.801 0 59.165-16.345 16.323-42.872 16.323-59.216 0l-285.799-285.451-128.101 127.925c-16.344 16.343-42.852 16.343-59.217 0-16.342-16.323-16.342-42.821 0-59.144l157.701-157.507c8.19-8.163 18.895-12.265 29.617-12.265v0z" />
<glyph unicode="&#xe909;" glyph-name="down" horiz-adv-x="853" d="M0.887 377.636l427.038-441.178 423.27 436.945-50.096 51.715-337.596-348.503v883.386h-70.933v-883.272l-341.586 352.622z" />
<glyph unicode="&#xe90a;" glyph-name="Expert-fashion" horiz-adv-x="986" d="M340.326 222.893c0 35.647 5.053 69.614 15.166 101.82 10.113 32.207 24.418 61.929 42.835 89.015 18.417 27.152 40.305 51.311 65.583 72.394 25.283 21.154 53.163 37.914 83.428 50.579 1.736 4.831 3.252 9.439 4.408 13.616l4.475 12.66c1.301 4.172 2.385 8.127 3.686 11.711 5.924 1.759 11.413 5.053 16.759 9.958 4.839 4.172 9.17 10.102 13 17.641 3.973 7.467 6.502 17.86 7.583 31.18 1.156 9.667 1.156 17.787-0.359 24.451-1.372 6.663-3.394 12.006-5.782 16.251-2.38 4.757-5.632 8.713-9.897 11.71 0 24.741-1.445 49.118-4.547 73.271-2.966 21.082-7.875 43.192-15.099 66.468-7.005 23.205-18.417 44.504-33.875 63.755-6.574 8.495-15.6 16.838-27.158 25.327-11.705 8.423-24.847 15.961-39.799 22.545-14.807 6.663-30.7 12.006-47.674 15.809-16.901 3.954-34.023 5.859-51.282 5.859-13.651 0-27.807-1.028-42.4-3.149-14.521-2.123-29.257-6.222-44.136-12.146-14.879-6.004-29.181-14.349-42.83-24.891-13.799-10.61-26.512-24.299-38.427-41.136-12.498-17.424-21.668-37.333-27.736-59.733-5.924-22.25-10.040-43.042-12.428-62.364-2.38-22.909-3.537-45.749-3.537-68.659-5.345-6.077-9.247-12.376-11.629-19.032-2.964-6.518-4.695-14.13-5.345-22.619-0.578-8.42 0.651-17.713 3.61-28.040 2.96-10.169 6.502-18.077 10.691-23.423 4.188-5.49 8.090-9.661 11.628-12.66 4.116-3.078 8.311-5.127 12.499-6.373 2.959-9.589 5.924-19.033 8.884-28.036 3.030-7.756 6.353-15.513 10.326-23.058 3.83-7.54 8.161-13.321 12.856-17.565 10.113-8.42 19.36-16.691 27.663-24.89 8.311-8.198 13.15-19.177 14.306-32.939 0.572-9.661 0.864-18.373 0.864-26.276 0-7.762-1.515-15.374-4.479-22.623-2.96-7.171-7.87-14.564-14.66-22.177-6.866-7.539-16.544-15.151-28.965-23.13-10.762-6.591-22.539-12.152-35.253-16.614-12.784-4.541-25.999-8.785-39.727-12.667-13.651-3.953-27.085-7.902-40.158-12.225-13.076-4.243-24.99-9.734-35.611-16.831-10.619-6.958-19.716-15.229-27.162-24.89-7.439-9.661-12.35-21.887-14.73-37.11-5.924-39.087-7.297-71.299-4.045-96.257 3.246-24.964 8.161-39.819 14.73-44.65 3.544-3.077 12.212-6.003 25.862-9.152 13.651-2.926 30.265-6.003 49.911-8.93 19.646-3.149 41.534-5.859 65.583-8.639 24.127-2.71 48.396-5.194 72.737-7.244 24.342-2.049 48.037-3.735 70.928-4.981 22.827-1.166 42.907-1.826 60.173-1.826h24.049c-14.301 25.254-25.493 52.334-33.44 80.955-8.011 28.62-12.056 58.631-12.056 89.961zM933.776 332.839c-14.951 34.697-34.96 65-60.096 90.913-25.355 25.84-55.113 46.335-89.28 61.415-34.31 15.077-70.714 22.617-109.499 22.617-39.226 0-75.917-7.54-110.226-22.617-34.096-15.078-63.853-35.575-89.132-61.415-25.354-25.986-45.292-56.216-60.172-90.913s-22.39-71.662-22.39-110.822c0-39.238 7.51-76.203 22.39-110.822 14.879-34.624 34.818-64.931 60.243-90.844 25.278-25.835 55.036-46.186 89.132-60.974 34.238-14.86 70.928-22.248 110.155-22.248 38.784 0 75.189 7.389 109.499 22.248 34.096 14.788 63.853 35.139 89.28 60.974 25.136 25.84 45.144 56.147 60.096 90.844 14.807 34.692 22.318 71.585 22.318 110.822 0 39.159-7.51 76.123-22.318 110.822zM613.425 274.717h1.154l-24.604-75.752-99.565 75.752h123.015zM684.711 129.514l65.711 46.56 29.339-112.498-95.050 65.938zM766.394 204.51l-0.003 0.006-112.703-81.567-90.939-59.373 37.124 118.624 0.145-0.043 1.071 3.938 1.118 3.566-0.122 0.094 30.272 90.384 1.070 3.531 41.119 111.698 51.548-120.652h132.571l-92.27-70.205z" />
<glyph unicode="&#xe90b;" glyph-name="Expert-Financial" horiz-adv-x="1067" d="M1065.207 42.3c0-14.767-2.539-28.554-7.624-41.376s-12.318-24.086-21.7-33.8c-9.386-9.716-20.34-17.291-32.853-22.726-12.508-5.441-26.197-8.159-41.060-8.159h-851.696c-14.857 0-28.937 2.718-42.234 8.159-13.292 5.435-25.023 13.009-35.191 22.726-10.17 9.715-18.187 20.98-24.048 33.8-5.869 12.822-8.8 26.61-8.8 41.376v581.592c0 29.522 10.359 54.58 31.085 75.172 20.726 20.59 45.949 30.889 75.67 30.889h851.697c29.721 0 54.943-10.299 75.67-30.889 20.726-20.592 31.085-45.65 31.085-75.172v-158.513h-266.3c-29.721 0-54.943-10.099-75.67-30.301s-31.085-45.066-31.085-74.594c0.784-20.202 5.085-38.075 12.906-53.615 6.254-13.211 16.619-25.253 31.085-36.129 14.471-10.877 35.394-16.317 62.764-16.317h266.3v-212.123zM905.661 783.566h-532.606c42.234 21.752 82.12 42.732 119.659 62.934 32.848 17.096 65.31 34.191 97.375 51.286 32.064 17.090 57.092 30.301 75.081 39.627 27.372 14.761 51.812 21.563 73.322 20.397 21.503-1.166 39.689-4.857 54.546-11.070 17.208-8.547 32.070-19.813 44.585-33.802l68.038-129.37zM746.117 360.484c0 14.761 5.084 27.193 15.249 37.298 10.171 10.099 22.684 15.15 37.542 15.15s27.371-5.051 37.542-15.15c10.165-10.104 15.249-22.537 15.249-37.298s-5.084-27.388-15.249-37.88c-10.171-10.487-22.684-15.735-37.542-15.735s-27.371 5.247-37.542 15.735c-10.165 10.493-15.249 23.119-15.249 37.88v0z" />
<glyph unicode="&#xe90c;" glyph-name="Expert-legal" horiz-adv-x="939" d="M0.242 587.57c0.41 20.039-1.189 39.648 4.724 58.847 6.65 21.594 18.233 38.060 35.105 49.307 22.125 14.745 44.584 28.817 66.89 43.192 30.349 19.56 60.681 39.157 91.041 58.694 18.923 12.177 37.911 24.217 56.818 36.421 25.54 16.48 51.001 33.117 76.551 49.573 20.051 12.914 40.207 25.6 60.268 38.495 13.699 8.808 27.149 18.157 41.013 26.59 9.574 5.821 19.657 9.844 30.787 10.808 17.526 1.519 32.876-4.346 47.671-14.598 13.581-9.412 27.703-17.768 41.544-26.681 20.046-12.909 40.023-25.951 60.081-38.842 13.416-8.623 26.951-16.998 40.362-25.628 24.152-15.546 48.236-31.221 72.371-46.793 12.557-8.104 25.163-16.106 37.749-24.153 22.915-14.649 45.902-29.14 68.718-43.989 24.634-16.035 49.434-31.783 73.523-48.874 12.613-8.951 20.458-23.294 26.524-39.194 7.796-20.435 4.879-41.674 5.701-63.174-312.466 0-624.666 0-937.441 0v0zM469.094 711.767h145.34c1.152 0 2.304-0.066 3.448 0.019 4.294 0.317 7.458 3.497 7.921 7.761 0.316 2.888-1.99 6.618-3.885 9.227-1.459 2.006-4.105 2.841-6.216 4.21-23.246 15.077-46.48 30.188-69.747 45.219-12.972 8.382-26.21 16.233-38.971 25.024-23.641 16.289-47.586 17.34-71.854 2.713-13.88-8.368-27.376-17.598-41.057-26.413-25.259-16.283-50.546-32.51-75.761-48.885-2.066-1.34-4.2-3.258-5.392-5.548-3.29-6.322 1.45-13.314 8.862-13.316 49.102-0.020 98.207-0.011 147.311-0.011v0zM28.034-63.357v59.972h45.061v58.386h59.099v59.296h679.039v-58.893h61.072v-58.383h43.261v-60.377c-295.639-0.001-591.37-0.001-887.532-0.001v0zM328.847 469.971h-32.609v-336.946h-161.959v336.686h-34.747c-0.188 2.109-0.49 3.747-0.455 5.37 0.324 15.918 0.419 31.852 1.139 47.747 0.917 20.242 17.822 40.948 35.646 41.497 28.577 0.884 57.17 1.099 85.757 1.379 20.441 0.2 40.891 0.333 61.328-0.099 8.933-0.187 17.835-1.531 25.755-7.614 12.346-9.482 19.090-23.084 19.97-40.071 0.815-15.672 0.174-31.455 0.174-47.951v0zM552.795 132.864h-161.654v336.798h-33.284c0 12.987 0.171 25.23-0.051 37.463-0.207 11.468 0.488 22.587 5.554 32.8 7.227 14.563 17.6 24.131 32.129 24.374 49.874 0.837 99.759 1.621 149.63 1.162 21.197-0.194 35.956-12.839 42.026-38.189 0.338-1.413 0.75-2.874 0.752-4.315 0.052-17.295 0.032-34.59 0.032-52.649h-35.138c0.002-112.842 0.002-224.923 0.002-337.444v0zM812.266 470.235v-337.182h-159.637v336.808h-35.869c1.793 20.816-2.262 41.044 2.448 60.966 3.625 15.335 12.27 25.505 24.625 30.754 6.163 2.62 13.053 3.94 19.624 3.988 45.967 0.331 91.934 0.292 137.902 0.094 11.589-0.051 22.755-3.017 31.758-12.315 8.024-8.288 13.323-19.209 14.095-31.496 1.060-16.944 0.265-34.050 0.265-51.619-11.741 0.001-23.070 0.001-35.212 0.001v0z" />
<glyph unicode="&#xe90d;" glyph-name="Expert-more" horiz-adv-x="1067" d="M408.501 937.811h-354.687c-29.379 0-53.202-23.701-53.202-52.914v-352.657c0-29.213 23.823-52.914 53.202-52.914h354.687c29.343 0 53.201 23.701 53.201 52.914v352.657c0 29.213-23.858 52.914-53.201 52.914zM953.77 395.597h-354.699c-29.379 0-53.19-23.677-53.19-52.89v-352.68c0-29.214 23.811-52.891 53.19-52.891h354.699c29.355 0 53.19 23.677 53.19 52.891v352.68c0 29.213-23.835 52.89-53.19 52.89zM1033.981 802.793l-286.644 150.472c-23.715 12.462-53.119 3.416-65.675-20.143l-151.348-285.088c-12.509-23.63-3.423-52.821 20.329-65.33l286.656-150.448c23.739-12.462 53.189-3.416 65.722 20.167l151.301 285.041c12.545 23.63 3.458 52.867-20.341 65.329zM408.501 395.597h-354.687c-29.379 0-53.202-23.677-53.202-52.89v-352.68c0-29.214 23.823-52.891 53.202-52.891h354.687c29.343 0 53.201 23.677 53.201 52.891v352.68c0 29.213-23.858 52.89-53.201 52.89z" />
<glyph unicode="&#xe90e;" glyph-name="button-up-down" horiz-adv-x="341" d="M170.667 960l170.667-341.333h-341.333zM170.667-64l-170.667 341.333h341.333z" />
<glyph unicode="&#xe90f;" glyph-name="selected" horiz-adv-x="1216" d="M0-27.728l1251.147 987.85v-987.85h-1251.147zM1087.948 424.036l-22.73 23.964-318.249-335.537-148.239 156.287-22.73-23.952 170.969-180.228 340.979 359.467z" />
<glyph unicode="&#xe910;" glyph-name="book" d="M512 960c-282.77 0-512-229.23-512-512s229.23-512 512-512c282.77 0 512 229.23 512 512 0 135.791-53.943 266.020-149.961 362.039s-226.248 149.961-362.039 149.961zM740.093 237.901v108.219h38.206v-108.215l-38.206-0.004zM740.093 501.986h38.206v-108.215h-38.206v108.215zM740.093 657.856h38.206v-108.219h-38.206v108.219zM326.96 715h207.206v-294.599l59.963 63.2 59.967-63.2v294.599h66.963v-534.295h-394.1v534.295zM244 715h53.798v-534.295h-53.798v534.295z" />
<glyph unicode="&#xe911;" glyph-name="customer-service" d="M516.668 152.137c5.004 0 10.096 0.308 15.222 0.917 49.158 5.9 90.9 40.26 106.307 87.61 1.163 3.541-0.516 7.337-3.907 8.892-3.352 1.562-7.41 0.212-9.306-2.966-0.179-0.302-19.71-31.849-95.746-42.118-11.382-1.527-22.458-2.328-32.956-2.328-53.271 0.034-77.010 20.113-77.227 20.298-2.68 2.384-6.772 2.446-9.52 0.123-2.775-2.322-3.414-6.358-1.521-9.447 23.19-37.595 64.804-60.981 108.655-60.981v0zM925.504 623.366c-0.67 0-1.281-0.123-1.918-0.123-44.552 192.878-214.783 336.757-418.883 336.757-209.713 0-383.85-151.824-422.447-352.685-37.528-6.753-66.092-39.738-66.092-79.628v-159.654c0-44.747 35.883-81.032 80.189-81.032 24.992 0 47.052 11.802 61.726 29.928 35.458-93.781 107.642-169.397 198.995-209.293 0.218 0.476 1.947 3.839 4.029 6.52 1.438 1.858 3.050 3.38 4.433 3.38 1.433 0 2.748-0.52 3.872-1.314-21.143 15.742-97.513 96.657-114.056 209.572-7.258 49.699 29.968 98.488 73.322 106.558 69.6 12.96 138.836 27.723 208.436 40.437 44.244 8.070 74.48 32.34 92.969 72.75 4.332 9.447 10.589 28.547 13.46 56.092 0.761 4.096 4.119 7.241 8.422 7.241 2.871 0 5.311-1.466 6.928-3.576l1.92 1.192c27.432-39.827 81.833-128.013 89.645-220.999 8.971-106.311 3.967-179.125-77.406-253.616-0.096-0.095-0.219-0.212-0.337-0.308-1.13-1.219-1.802-2.808-1.802-4.554 0-2.289 1.221-4.248 2.988-5.44 0.672-0.275 1.344-0.643 2.016-0.918 0.547-0.123 1.069-0.302 1.617-0.302 0.553 0 1.040 0.179 1.527 0.302 1.159 0.61 2.255 1.315 3.385 1.925 82.293 45.336 145.423 121.046 174.596 212.108 11.809-17.544 30.299-30.17 51.777-34.574-34.45-156.683-174.194-254.746-347.324-269.631-10.375 25.737-35.916 44.015-65.911 44.015-39.174 0-70.938-31.026-70.938-69.265s31.759-69.23 70.938-69.23c31.585 0 58.037 20.292 67.22 48.172 200.406 16.29 361.057 135.411 394.595 320.495 29.627 12.384 50.433 41.45 50.433 75.381v161.545c0 45.151-36.862 81.773-82.326 81.773v0zM851.574 576.962c-52.268 141.59-187.713 242.736-347.049 242.736-158.67 0-293.628-100.29-346.383-240.963-2.625 3.212-5.703 5.96-8.725 8.742 29.866 171.423 177.4 301.759 355.287 301.759 177.036 0 324.11-129.054 354.956-299.287-3.049-4.096-5.858-8.371-8.086-12.988v0zM357.087 107.635c-0.006 0-0.006 0-0.011 0-0.033-0.072-0.033-0.083 0.011 0v0z" />
<glyph unicode="&#xe912;" glyph-name="drop-down-arrow" d="M9.048 550.54l-0.35-0.487 503.093-115.661 493.916 113.574c11.068 1.855 18.212 6.431 18.212 11.649 0 6.887-12.679 12.483-28.265 12.483-1.786 0-3.537-0.069-5.253-0.224l-0.666 0.557-477.944-109.872-471.045 108.264c-4.027 0.85-8.195 1.275-12.363 1.275-15.621 0-28.299-5.596-28.299-12.483-0.001-3.478 3.326-6.748 8.965-9.075zM995.654 461.376c-1.541 0-3.047-0.054-4.554-0.162l-0.525 0.587-478.785-110.056-467.192 107.359c-4.799 1.492-10.402 2.273-16.216 2.273-15.621 0-28.299-5.596-28.299-12.483 0-3.347 3.083-6.508 8.371-8.819l-0.701-0.626 504.037-115.878 503.056 116.194c5.709 2.327 9.071 5.612 9.071 9.129 0.001 6.887-12.678 12.483-28.263 12.483z" />
<glyph unicode="&#xe913;" glyph-name="visa" d="M96.748 39.333c0-21.895 17.898-39.791 39.729-39.791 250.508 0.194 501.192 0.062 751.195 0.062 20.995 1.173 37.51 18.467 37.51 39.729v32.188h-828.434v-32.188zM876.090 289.59h-179.025c-12.919 14.646-19.001 20.192-23.178 24.846-72.329 80.622-31.561 134.044 14.558 207.632 8.144 10.498 15.627 21.471 22.011 33.078 0 0.058 0.15 0.237 0.15 0.237l-0.029 0.030c17.776 32.693 27.889 70.243 27.889 110.153 0 127.753-103.652 231.375-231.434 231.375-127.841 0-231.463-103.622-231.463-231.375 0-53.869 18.52-103.234 49.302-142.545 49.697-77.79 126.737-134.584-2.742-234.386h-183.683c-21.83 0-41.698-32.989-41.698-54.853v-132.014h828.434v132.014c0 28.302-19.734 55.808-49.092 55.808z" />
<glyph unicode="&#xe914;" horiz-adv-x="768" d="M348.565 960l348.565-409.361h-697.13z" />
<glyph unicode="&#xe915;" horiz-adv-x="768" d="M341.017-65.185l-341.017 427.851h682.034z" />
<glyph unicode="&#xe916;" glyph-name="Button-normal" horiz-adv-x="768" d="M348.565 960l348.565-409.361h-697.13zM341.017-65.185l-341.017 427.851h682.034z" />
<glyph unicode="&#xe917;" horiz-adv-x="768" d="M348.565 942.695l348.565-409.361h-697.13z" />
<glyph unicode="&#xe918;" horiz-adv-x="768" d="M341.017-65.185l-341.017 427.851h682.034z" />
<glyph unicode="&#xe919;" glyph-name="correct" horiz-adv-x="1365" d="M431.799-27.627c-15.903 0-31.154 6.623-42.399 18.413l-371.741 389.765c-23.416 24.551-23.416 64.356 0 88.907 23.416 24.549 61.381 24.549 84.797 0l329.342-345.314 778.255 815.98c23.417 24.552 61.381 24.549 84.795 0 23.416-24.551 23.416-64.354 0-88.905l-820.651-860.435c-11.245-11.791-26.496-18.412-42.398-18.412z" />
<glyph unicode="&#xe91a;" glyph-name="evaluation-result-share" horiz-adv-x="1170" d="M57.953 885.085c0 0 475.018 0.492 501.892 0 42.97-0.776 42.206 59.262 0 59.262-36.068 0-501.1 0.776-521.836 0-20.706-0.776-37.977-5.461-37.977-33.54v-934.377c0-29.826 10.926-39.374 39.122-39.374h978.438c23.026 0 35.657 11.115 35.657 37.435v382.407c0 44.431-58.683 43.64-58.683 0v-360.208l-936.613 0.016v888.378zM566.365 354.166c-0.381-36.643 47.199-35.867 52.956-14.815 5.727 21.051 53.308 398.386 467.323 361.355 0 0-124.944-157.836-145.916-184.737-20.971-26.929 23.996-62.917 44.703-36.777 20.736 26.14 174.904 220.737 174.904 220.737s22.027 18.694-0.412 45.222c-22.41 26.528-155.784 184.363-176.109 206.981-20.326 22.619-64.529-12.368-43.353-37.269s129.674-152.569 129.674-152.569c-439.683 18.321-503.389-371.487-503.77-408.129v0z" />
<glyph unicode="&#xe91b;" glyph-name="go-ahead" horiz-adv-x="640" d="M64.957-64l520.239 512.047-520.239 511.953-64.957-63.959 455.185-447.994-455.185-447.994z" />
<glyph unicode="&#xe91c;" glyph-name="wrong" d="M16.021 29.344l419.234 418.688-419.234 418.688c-10.681 10.667-16.021 23.339-16.021 38.016s5.34 27.349 16.021 38.016c10.681 10.667 23.369 16 38.066 16s27.385-5.333 38.066-16l419.234-418.688 419.234 418.688c10.681 10.667 23.369 16 38.066 16s27.385-5.333 38.066-16c10.681-10.667 16.021-23.339 16.021-38.016s-5.34-27.349-16.021-38.016l-419.234-418.688 419.234-418.688c10.681-10.667 16.021-23.339 16.021-38.016s-5.34-27.349-16.021-38.016c-10.681-10.667-23.369-16-38.066-16s-27.385 5.333-38.066 16l-419.234 418.688-419.234-418.688c-10.681-10.667-23.369-16-38.066-16s-27.385 5.333-38.066 16c-10.681 10.667-16.021 23.339-16.021 38.016s5.34 27.349 16.021 38.016z" />
<glyph unicode="&#xe91d;" glyph-name="education" d="M261.512-28.893h-240.382v887.971h240.382v-887.971zM220.373 813.821h-157.74v-81.834h157.74v81.834zM348.271 959.277h223.596v-988.171h-223.596v988.171zM538.849 921.208h-152.606v-77.042h152.606v77.042zM1003.354 37.683l-200.878-66.577-238.626 744.899 200.878 66.577 238.626-744.899zM742.512 733.224l-131.817-43.688 21.992-68.647 131.817 43.688-21.992 68.647z" />
<glyph unicode="&#xe91e;" glyph-name="work" d="M494.663 725.127c135.050-0.206 244.31-111.592 244.541-249.304-0.141-75.311-29.376-142.558-68.307-199.374 58.592 31.429 132.486 97.36 132.536 199.374-0.049 173.848-138.288 314.665-308.77 314.707h-0.919c-170.476-0.041-308.724-140.858-308.767-314.707 0.043-102.013 73.92-167.945 132.535-199.374-38.926 56.816-68.186 124.064-68.307 199.374 0.234 137.713 109.495 249.097 244.539 249.304h0.919zM493.792 958.996c-261.899 0-474.047-216.275-474.091-483.056 0-71.577 15.313-139.569 42.705-200.681 54.978-122.466 158.689-196.882 285.885-230.695l-8.63 18.188c-97.13 48.51-175.681 143.562-219.007 240.484-23.534 52.609-36.632 111.087-36.746 172.703 0.367 230.685 183.531 417.21 409.884 417.69 226.302-0.48 409.42-187.005 409.809-417.69-0.297-171.959-102.149-340.34-247.71-412.303l-7.395-19.79c185.811 58.163 319.312 220.517 319.339 432.093-0.048 266.782-212.242 483.056-474.043 483.056zM631.163 329.047c13.604-170.733-78.852-380.597-78.852-380.597s-23.44-11.446-58.25-11.446c-34.716 0-58.793 11.446-58.793 11.446s-92.506 209.864-78.902 380.597c0 0 21.808 71.786 138.481 71.786 116.676 0 136.315-71.786 136.315-71.786zM598.127 542.637c0-58.743-46.737-106.377-104.382-106.377-57.598 0-104.335 47.634-104.335 106.377 0 58.731 46.737 106.355 104.335 106.355 57.646 0.001 104.382-47.624 104.382-106.355z" />
<glyph unicode="&#xe91f;" glyph-name="city" d="M512-64c-282.77 0-512 229.23-512 512s229.23 512 512 512c282.77 0 512-229.23 512-512s-229.23-512-512-512zM479.583 566.624l-186.938 71.953v-413.719h81.194v227.094h105.744v114.671zM683.794 716.524h-26.694v13.188h-65.975v-13.188h-26.698v-491.665h65.24v183.361h54.128v308.304zM642.945 389.448v-164.589h119.368v164.589h-119.368zM519.165 437.113h-133.054v-212.254h166.042v240.438h-32.988v-28.185z" />
<glyph unicode="&#xe920;" glyph-name="column" d="M512-64c-282.77 0-512 229.23-512 512s229.23 512 512 512c282.77 0 512-229.23 512-512s-229.23-512-512-512zM741.36 444.746l-143.267 25.923-70.432 120.272-70.488-120.272-143.267-25.923 99.751-100.227-18.111-136.298 132.088 58.334 132.088-58.334-18.111 136.298 99.751 100.227zM705.753 730.122h-71.242v-208.772h71.27v208.772h-0.028zM420.756 730.122h-71.27v-208.772h71.27v208.772zM563.268 730.122h-71.27v-104.386h71.27v104.386z" />
<glyph unicode="&#xe921;" glyph-name="evaluation" d="M463.535 408.483l453.414 94.311c6.547-30.432 10.047-61.954 10.047-94.311 0-250.469-207.525-453.561-463.461-453.561-256.022 0-463.535 203.093-463.535 453.561 0 248.45 204.209 450.221 457.378 453.445l6.157-453.445zM683.82 937.001l-114.934-439.451 453.435 94.279c-36.426 168.696-168.72 302.804-338.5 345.172v0zM510.886 941.714c-2.054 0-4.085-0.074-6.159-0.074l6.159-453.477 114.921 439.451c-36.752 9.186-75.244 14.1-114.921 14.1z" />
<glyph unicode="&#xe922;" glyph-name="invest" d="M1021.854 426.453c-7.915 80.019-49.594 156.958-119.416 213-40.755 32.739-88.001 58.306-138.721 76.89-6.617-8.714-14.133-16.9-22.7-24.361-11.362-9.87-24.097-18.392-37.983-25.18 14.684-4.237 28.793-9.051 42.378-14.638 13.76-5.681 19.104-20.413 11.462-31.967-6.718-10.209-21.45-14.253-33.587-9.148-92.423 38.035-195.607 30.911-240.882 24.939-13.31-1.734-26.072 5.681-29.167 17.045v0.192c-3.597 12.903 6.342 25.71 21.401 27.732 8.24 1.157 18.18 2.215 29.317 3.178-3.397 2.503-6.618 5.103-9.74 7.849-15.982 13.913-28.618 30.186-37.434 48.434-0.898 1.877-1.822 3.9-2.647 5.826-13.785-2.023-27.419-4.528-40.755-7.415-77.589 39.383-170.684 39.482-226.048 34.763-24.073-2.023-38.307-24.506-27.794-43.524l46.898-83.872c-52.116-39.673-91.498-88.109-113.599-142.226l-57.21 0.194c-19.204 0.096-34.837-13.577-34.837-30.334v-111.988c0-11.362 7.142-21.667 18.629-26.866l74.217-33.798c31.040-74.725 95.318-138.76 180.074-182.958v-99.183c0-19.498 18.204-35.337 40.53-35.337h104.009c16.082 0 30.691 8.377 37.184 21.183l26.046 52.288c22.475-2.407 45.273-3.66 68.673-3.66 36.834 0 72.62 3.082 107.006 8.81v-43.284c0-19.498 18.18-35.337 40.53-35.337h103.534c14.933 0 28.718 7.123 35.76 18.679 55.139 90.324 114.998 181.031 159.223 275.686 22.378 47.859 30.493 98.703 25.648 148.389v0zM280.332 451.296c-28.843 0-52.116 20.317-52.116 45.497s23.273 45.498 52.116 45.498c28.819 0 52.117-20.318 52.117-45.498s-23.299-45.497-52.117-45.497v0zM566.264 686.251c15.857-5.488 33.212-8.522 51.392-8.522 8.915 0 17.606 0.724 25.946 2.118 35.46 5.777 66.127 23.254 86.629 47.617 17.031 20.222 27.094 45.161 27.094 72.267 0.125 67.455-62.531 122.052-139.669 122.052-77.239 0-139.769-54.598-139.769-122.052 0-17.477 4.169-34.040 11.836-49.158 14.683-29.271 42.378-52.526 76.54-64.323v0z" />
<glyph unicode="&#xe923;" glyph-name="live2" d="M300.483 367.55c0 0 41.789-186.954 197.010-192.796 0 0 179.099 5.842 232.829 175.268l-429.839 17.527zM73.623 355.866c0 0-47.76 391.433 429.839 479.069 0 0 459.69-58.423 447.749-455.699l-877.588-23.369zM512.003-63.983c-16.328 0-29.605 12.999-29.605 28.972v93.009c0 15.979 13.277 28.978 29.605 28.978s29.612-12.918 29.612-28.785v-93.202c0-15.974-13.283-28.972-29.612-28.972v0zM821.021 43.044c-7.892 0-15.331 3.026-20.943 8.518l-67.205 65.761c-5.606 5.492-8.698 12.772-8.698 20.495 0 7.718 3.086 14.997 8.698 20.489 5.648 5.533 13.11 8.577 21.002 8.577 7.809 0 15.17-2.997 20.733-8.442l67.342-65.901c11.54-11.299 11.54-29.679 0-40.978-5.611-5.496-13.038-8.516-20.93-8.516v0zM193.243 43.044c-7.892 0-15.355 3.049-21.002 8.582-5.612 5.492-8.698 12.765-8.698 20.489 0 7.718 3.092 14.997 8.698 20.489l67.205 65.767c5.612 5.486 13.044 8.512 20.943 8.512 7.887 0 15.325-3.020 20.931-8.512 11.546-11.299 11.546-29.679 0-40.978l-67.342-65.901c-5.565-5.45-12.931-8.447-20.734-8.447v0zM512.009 141.844c-111.49 0-208.705 73.812-236.418 179.493-0.681 2.582-3.060 4.386-5.785 4.387h-233.015v71.346c0.072 0.337 0.109 0.679 0.113 1.023 2.233 116.186 48.65 226.71 130.701 311.219 81.747 84.199 191.577 135.226 309.251 143.679 3.118 0.228 5.529 2.77 5.528 5.83v71.697c0 15.979 13.283 28.978 29.612 28.978s29.612-12.918 29.612-28.785v-71.89c-0.001-3.060 2.41-5.602 5.528-5.83 117.68-8.46 227.511-59.487 309.258-143.679 82.046-84.508 128.468-195.034 130.701-311.219 0.005-0.362 0.047-0.719 0.12-1.064v-71.311h-233.015c-2.725 0-5.105-1.804-5.785-4.387-27.702-105.676-124.924-179.488-236.407-179.488v0zM348.191 325.725c-1.964 0.002-3.804-0.943-4.919-2.525s-1.363-3.601-0.663-5.397c26.614-68.454 94.69-114.451 169.392-114.451 74.708 0 142.778 45.991 169.393 114.451 0.697 1.797 0.449 3.814-0.663 5.398-1.112 1.583-2.951 2.527-4.913 2.524h-327.626zM512.009 786.886c-106.743 0-207.648-40.353-284.117-113.621-76.351-73.151-119.723-170.788-122.129-274.926-0.041-1.572 0.57-3.094 1.694-4.218s2.664-1.757 4.271-1.753h800.553c1.607-0.001 3.148 0.631 4.274 1.753 1.121 1.126 1.732 2.647 1.695 4.218-2.406 104.139-45.778 201.775-122.128 274.926-76.464 73.268-177.369 113.621-284.112 113.621v0z" />
<glyph unicode="&#xe924;" glyph-name="overseas-live" d="M1.208 253.831l339.297 2.134 0.589-67.954-115.3-0.899 1.415-132.764 387.279-1.348 26.29 267.1-19.452 2.359c0 0-63.544-60.99-168.941-18.308-52.698 21.341-72.033 63.799-77.22 101.089-14.737 107.716 90.542 149.275 87.359 164.214-1.886 8.986-45.035 47.063-33.128 100.752 10.61 47.849 34.661 71.324 66.020 87.161s60.008 13.029 60.008 13.029c-28.648 196.225 289.31 170.616 239.677 1.572 0 0 86.18-1.909 108.815-79.973s-28.53-124.564-28.53-124.564c0 0 88.066-46.164 85.119-143.21-2.829-97.046-85.708-137.818-128.504-138.155-42.795-0.225-75.216 13.591-76.041 13.928l-47.747 21.79-16.033 0.449 20.396-267.662 299.213 0.786 0.825-67.393-1010.934 0.112-0.589 65.146 127.443-0.112v135.909l-128.386-0.562 1.061 65.371z" />
<glyph unicode="&#xe925;" glyph-name="policy" d="M812.050 807.272l-142.841-310.512h-41.545l152.398 328.909h-235.359v-768.387c48.567-1.846 295.889-80.397 295.889-80.397v-39.53h-665.051v42.013c0 0 247.647 77.914 285.681 77.914v768.324h-222.42l152.398-328.909h-41.61l-142.841 310.576-142.971-310.512h-41.545l153.308 332.473v38.257h255.774c0 50.161 34.394 91.155 74.444 91.155 42.391 0 74.444-43.286 74.444-91.155h260.455v-32.846l155.909-337.948h-41.675l-142.841 310.576zM393.801 453.729c0-99.812-70.803-190.712-187.052-190.712-113.713 0-187.052 90.9-187.052 190.712-0.065-0.191 374.103-0.191 374.103 0zM630.199 453.729c0-0.127 374.103-0.127 374.103 0 0-99.812-70.738-190.712-187.052-190.712-113.648 0-187.052 90.837-187.052 190.712z" />
<glyph unicode="&#xe926;" glyph-name="raiders" d="M949.532 46.824v207.133h73.127v-207.125l-73.127-0.008zM949.532 552.287h73.127v-207.125h-73.127v207.125zM949.532 850.625h73.127v-207.133h-73.127v207.133zM158.787 960h396.597v-563.869l114.771 120.966 114.779-120.966v563.869h128.169v-1022.651h-754.315v1022.651zM0 960h102.971v-1022.651h-102.971v1022.651z" />
<glyph unicode="&#xe927;" glyph-name="welfare" d="M1012.837 738.209c-7.182 7.185-16.723 11.141-26.867 11.141h-136.734c10.986 20.577 16.759 43.659 16.759 67.292 0 79.047-64.308 143.358-143.351 143.358-77.898 0-142.134-60.525-173.482-96.595-13.564-15.548-26.307-32.644-37.172-49.839-10.81 17.083-23.546 34.172-37.157 49.83-31.403 36.078-95.7 96.605-173.49 96.605-79.044 0-143.351-64.31-143.351-143.358 0-23.587 5.784-46.668 16.795-67.292h-136.743c-20.968 0-38.026-17.061-38.026-38.030v-157.996c0-20.968 17.059-38.026 38.026-38.026h14.644v-488.591c0-50.016 40.678-90.707 90.679-90.707h737.258c50.011 0 90.698 40.692 90.698 90.707v488.59h14.645c20.956 0 38.008 17.060 38.008 38.026v157.995c0.001 10.154-3.954 19.704-11.137 26.89v0zM461.185 749.349h-159.843c-37.11 0-67.3 30.185-67.3 67.291 0 37.108 30.191 67.298 67.3 67.298 34.858 0 77.197-25.679 116.163-70.453 17.476-20.083 33.093-43.063 43.681-64.136v0zM560.211 702.43v-724.122h-96.434v724.122h96.434zM789.949 816.645c-0.004-37.107-30.197-67.296-67.305-67.296h-159.838c10.578 21.042 26.19 44.018 43.673 64.135 38.968 44.773 81.31 70.454 116.172 70.454 37.108 0 67.299-30.188 67.299-67.293v0z" />
<glyph unicode="&#xe928;" glyph-name="konjian" horiz-adv-x="1067" d="M793.231 520.979l-317.955-229.689c0 0 127.605-19.066 320.056-16.856l-8.758 37.982 274.214 239.255c5.041 4.401 6.974 11.405 4.909 17.791-2.063 6.387-7.717 10.918-14.357 11.479l-361.503 31.258-141.237 336.583c-2.584 6.18-8.61 10.206-15.268 10.206s-12.682-4.026-15.266-10.206l-141.237-336.583-361.507-31.256c-6.639-0.562-12.292-5.092-14.355-11.479-2.065-6.387-0.13-13.39 4.909-17.791l274.216-239.255-82.195-355.931c-1.506-6.516 1.004-13.332 6.396-17.303 5.411-3.893 12.608-4.194 18.336-0.748l310.703 188.693 310.702-188.694c2.66-1.65 5.617-2.4 8.574-2.4 3.44 0 6.864 1.048 9.762 3.145 5.394 3.971 7.905 10.788 6.398 17.303l-64.992 281.47c27.875 14.119 58.576 38.015 58.576 38.015s-121.674-59.852-558.493-30.621l316.58 231.076c0 0-12.442 19.494-409.187 33.407-26.556 0.941 323.455 66.842 581.979 11.149z" />
<glyph unicode="&#xe929;" glyph-name="pengyouquan" d="M381.342 942.937c42.796 11.353 86.727 17.063 130.692 17.063 68.735 0 135.577-13.52 198.738-40.25l-8.394-371.091-321.036 394.277zM69.56 705.565c22.361 38.427 49.401 73.585 80.431 104.478 48.575 48.575 105.372 86.279 168.912 112.081l256.568-268.299-505.911 51.74zM17.063 317.239c-11.318 42.624-17.063 86.555-17.063 130.761 0 68.803 13.554 135.646 40.25 198.67l371.125-8.325-394.312-321.105zM254.435 5.56c-38.151 22.223-73.241 49.263-104.409 80.431-48.61 48.506-86.314 105.303-112.081 168.912l268.299 256.464-51.809-505.808zM512.034-64c-68.735 0-135.577 13.52-198.738 40.181l8.394 371.091 321.036-394.277c-42.864-11.284-86.761-16.994-130.692-16.994zM448.598 242.14l505.911-51.74c-22.189-38.083-49.16-73.172-80.465-104.409-48.506-48.644-105.372-86.348-168.912-112.149l-256.533 268.299zM612.694 257.587l394.277 321.105c11.318-42.658 17.029-86.623 17.029-130.692 0-69.010-13.554-135.783-40.216-198.738l-371.091 8.325zM769.565 890.405c38.117-22.12 73.276-49.126 104.478-80.362 48.644-48.506 86.348-105.372 112.081-168.912l-268.299-256.533 51.74 505.808z" />
<glyph unicode="&#xe92a;" glyph-name="qq" horiz-adv-x="853" d="M824.162 151.632c-13.864-1.82-43.282 27.307-65.592 84.323-15.272-61.167-44.972-112.795-84.665-153.063 48.139-13.253 80.794-38.812 80.794-68.303 0-43.108-69.674-77.915-155.606-77.915-64.466 0-119.995 19.734-143.43 47.914-9.783-0.874-19.635-1.311-29.559-1.311-11.542 0-22.943 0.728-34.204 1.675-23.225-28.326-78.894-48.351-143.853-48.351-85.861 0-155.465 34.88-155.465 77.915 0 30.583 35.259 57.016 86.635 69.832-39.623 40.414-69.322 91.75-84.735 151.898-22.239-57.453-51.728-87.017-65.522-85.197-17.876 2.403-35.752 59.419-25.899 145.636 6.545 57.744 37.511 128.378 68.619 151.752-0.141 6.554 0 13.326 0.774 20.243 5.841 53.74 14.287 101.217 35.963 105.95-3.73 19.588-5.771 39.686-5.771 60.147 0 179.205 150.398 324.476 323.528 324.476s323.528-145.271 323.528-324.476c0-20.68-2.041-40.924-5.912-60.512 0.141 0 0.282 0.073 0.422 0.073 17.876-1.238 33.43-49.079 39.482-106.023 0.845-7.5 0.985-14.709 0.704-21.773 30.263-25.705 59.54-93.571 65.874-149.276 9.783-86.216-8.234-143.378-26.11-145.636z" />
<glyph unicode="&#xe92b;" glyph-name="weixin" horiz-adv-x="1280" d="M866.4 649.782c14.72 0 29.2-1.097 43.76-2.665-39.2 178.891-234.32 311.766-457.12 311.766-249.040 0-453.040-166.27-453.040-377.538 0-121.9 67.84-222.007 181.28-299.772l-45.28-133.502 158.4 77.765c56.64-10.897 102.080-22.185 158.64-22.185 14.24 0 28.32 0.627 42.24 1.646-8.8 29.711-14 60.754-14 93.13 0.080 193.943 170 351.354 385.12 351.354zM622.88 770.114c34.24 0 56.72-22.028 56.72-55.423 0-33.238-22.48-55.502-56.72-55.502-33.84 0-67.92 22.263-67.92 55.502 0 33.474 34 55.423 67.92 55.423zM305.84 659.189c-34 0-68.24 22.263-68.24 55.502 0 33.395 34.24 55.423 68.24 55.423s56.56-21.95 56.56-55.423c0-33.238-22.56-55.502-56.56-55.502zM1280 303.758c0 177.48-181.28 322.114-384.88 322.114-215.6 0-385.28-144.712-385.28-322.114 0-177.951 169.76-322.114 385.28-322.114 45.12 0 90.64 11.053 135.92 22.185l124.24-66.79-34.080 111.004c90.96 66.947 158.8 155.609 158.8 255.716zM770.16 359.338c-22.48 0-45.28 21.95-45.28 44.37 0 22.107 22.8 44.37 45.28 44.37 34.4 0 56.72-22.263 56.72-44.37 0-22.42-22.32-44.37-56.72-44.37zM1019.36 359.338c-22.32 0-45.040 21.95-45.040 44.37 0 22.107 22.64 44.37 45.040 44.37 34.080 0 56.72-22.263 56.72-44.37 0-22.42-22.64-44.37-56.72-44.37z" />
<glyph unicode="&#xe92c;" glyph-name="expert" d="M998.106 664.99c8.114-8.114 12.171-18.256 12.171-29.412v-85.194c0-10.142-3.043-20.284-10.142-27.384l-456.395-510.149c-16.227-18.256-44.625-18.256-60.853 0l-456.395 510.149c-6.085 7.099-10.142 17.242-10.142 27.384v85.194c0 11.156 4.057 21.298 12.171 29.412l216.027 218.84c8.114 8.114 18.256 12.171 29.412 12.171h478.708c11.156 0 21.298-4.057 29.412-12.171l216.027-218.84zM961.966 633.195l-219.846 221.408h-455.076l-219.562-221.408v-81.913l444.517-494.553 449.966 494.553v81.913zM695.907 622.097l-14.199 37.526h138.612l-308.32-409.742-308.32 410.756h135.933l-14.199-38.54 186.586-253.354 183.907 253.354z" />
<glyph unicode="&#xe92d;" glyph-name="expert-selected" d="M998.106 664.99c8.114-8.114 12.171-18.256 12.171-29.412v-85.194c0-10.142-3.043-20.284-10.142-27.384l-456.395-510.149c-16.227-18.256-44.625-18.256-60.853 0l-456.395 510.149c-6.085 7.099-10.142 17.242-10.142 27.384v85.194c0 11.156 4.057 21.298 12.171 29.412l216.027 218.84c8.114 8.114 18.256 12.171 29.412 12.171h478.708c11.156 0 21.298-4.057 29.412-12.171l216.027-218.84zM695.907 622.097l-183.907-253.354-186.586 253.354 14.199 38.54h-135.933l308.32-410.756 308.32 409.742h-138.612l14.199-37.526z" />
<glyph unicode="&#xe92e;" glyph-name="home" d="M811.127-40.727h-596.332c-39.453 0-71.56 32.098-71.56 71.54v357.699h-133.865l-5.725 15.643c-7.967 21.7-2.624 46.215 13.549 62.43l453.451 453.276c22.517 22.511 61.589 22.464 84.107 0l453.403-453.276c16.22-16.168 21.563-40.73 13.596-62.478l-5.725-15.643h-133.34v-357.651c0-39.442-32.107-71.54-71.56-71.54zM54.263 436.205h136.679v-405.392c0-13.116 10.686-23.847 23.853-23.847h596.332c13.119 0 23.853 10.731 23.853 23.847v405.392h136.155l-450.111 449.985c-4.484 4.435-12.165 4.531-16.65 0l-450.111-449.985z" />
<glyph unicode="&#xe92f;" glyph-name="home-selected" d="M811.127-40.727h-596.332c-39.453 0-71.56 32.098-71.56 71.54v357.699h-133.865l-5.725 15.643c-7.967 21.7-2.624 46.215 13.549 62.43l453.451 453.276c22.517 22.511 61.589 22.464 84.107 0l453.403-453.276c16.22-16.168 21.563-40.73 13.596-62.478l-5.725-15.643h-133.34v-357.651c0-39.442-32.107-71.54-71.56-71.54z" />
<glyph unicode="&#xe930;" glyph-name="nice" horiz-adv-x="967" d="M194.331 551.261c0 0 37.981 0 42.201-43.025v-550.723c0 0 0-21.513-29.541-21.513h-139.263c0 0-33.761 0-33.761 34.42l-33.761 546.42c0 0 0 34.42 33.761 34.42h160.364zM903.307 551.261c0 0 67.522 4.303 63.301-68.84 0 0 0-103.261-97.062-447.462 0 0-29.541-98.958-67.522-98.958h-396.689c-29.541 0-101.282 21.513-101.282 73.143v542.118c0 0 198.345 150.588 198.345 339.899 4.22 8.605-12.66 68.84 63.301 68.84 0 0 173.024-21.513 71.742-408.739h265.866z" />
<glyph unicode="&#xe931;" glyph-name="evaluate" d="M512-64c282.77 0 512 229.23 512 512s-229.23 512-512 512c-282.77 0-512-229.23-512-512s229.23-512 512-512zM504.215 435.031l268.347 55.888c3.875-18.034 5.946-36.713 5.946-55.888 0-148.426-122.821-268.777-274.293-268.777-151.523 0-274.337 120.351-274.337 268.777 0 147.229 120.858 266.798 270.693 268.708l3.644-268.708zM634.587 748.227v0c100.482-25.107 178.779-104.578 200.337-204.546l-268.359-55.869 68.022 260.415zM532.239 751.020c23.483 0 46.263-2.913 68.015-8.356l-68.015-260.415-3.645 268.727c1.227 0 2.429 0.044 3.645 0.044z" />
<glyph unicode="&#xe932;" glyph-name="information" d="M897.054 23.819l-344.408 205.958-40.62 23.657-40.62-23.657-344.025-205.958v863.090c0 13.465 10.916 24.381 24.381 24.381h720.912c13.465 0 24.381-10.916 24.381-24.381v-863.090zM146.286 960c-40.359 0-73.143-28.686-73.143-64v-960l438.857 256 438.857-256v960c0 35.314-32.784 64-73.143 64h-731.429zM222.401 715.237h99.506v-48.975h-99.506v48.975zM222.401 813.188h99.506v-48.975h-99.506v48.975zM222.401 617.286h99.506v-48.975h-99.506v48.975z" />
<glyph unicode="&#xe933;" glyph-name="interpretation" d="M512 960c-282.77 0-512-229.23-512-512s229.23-512 512-512c282.77 0 512 229.23 512 512 0 135.791-53.943 266.020-149.961 362.039s-226.248 149.961-362.039 149.961zM679.162 648.597l-79.817-173.633h-23.215l85.157 183.92h-131.514v-429.669c27.138-1.032 165.337-44.957 165.337-44.957v-22.105h-371.618v23.493c0 0 138.38 43.568 159.633 43.568v429.634h-124.284l85.157-183.92h-23.251l-79.817 173.669-79.889-173.633h-23.215l85.666 185.914v21.393h142.922c0 28.049 19.218 50.972 41.598 50.972 23.687 0 41.598-24.205 41.598-50.972h145.537v-18.367l87.119-188.975h-23.287l-79.817 173.669zM445.452 450.902c0-55.813-39.563-106.643-104.521-106.643-63.541 0-104.521 50.83-104.521 106.643-0.036-0.107 209.042-0.107 209.042 0zM577.548 450.902c0-0.071 209.042-0.071 209.042 0 0-55.813-39.527-106.643-104.521-106.643-63.505 0-104.521 50.794-104.521 106.643z" />
<glyph unicode="&#xe934;" glyph-name="information-selected" d="M146.286 960c-40.359 0-73.143-28.686-73.143-64v-960l438.857 256 438.857-256v960c0 35.314-32.784 64-73.143 64h-731.429zM222.401 715.237h99.506v-48.975h-99.506v48.975zM222.401 813.188h99.506v-48.975h-99.506v48.975zM222.401 617.286h99.506v-48.975h-99.506v48.975z" />
<glyph unicode="&#xe935;" glyph-name="read-people" horiz-adv-x="1621" d="M551.483 414.772c210.153 0 501.982-123.171 501.982-275.415v-127.741h-1003.858v127.741c0 152.245 291.734 275.415 501.876 275.415zM1006.229 411.297c247.481 11.709 549.165-119.696 549.165-271.941v-127.741c0 0-235.985 0-416.191 0 0 112.102 22.727 285.895-132.974 399.682zM551.536 515.412c-110.883 0-200.772 90.116-200.772 201.281s89.888 201.281 200.772 201.281c110.883 0 200.772-90.116 200.772-201.281s-89.888-201.281-200.772-201.281zM1053.465 515.412c-110.883 0-200.772 90.116-200.772 201.281s89.888 201.281 200.772 201.281c110.883 0 200.772-90.116 200.772-201.281s-89.888-201.281-200.772-201.281z" />
<glyph unicode="&#xe936;" glyph-name="oversea" d="M512 960c-282.77 0-512-229.23-512-512s229.23-512 512-512c282.77 0 512 229.23 512 512 0 135.791-53.943 266.020-149.961 362.039s-226.248 149.961-362.039 149.961zM204.736 330.015l206.54 1.297 0.359-41.292-70.186-0.546 0.861-80.672 235.749-0.819 16.004 162.3-11.841 1.433c0 0-38.681-37.060-102.84-11.125-32.079 12.968-43.849 38.766-47.006 61.426-8.971 65.453 55.116 90.705 53.178 99.783-1.148 5.46-27.414 28.597-20.166 61.221 6.459 29.075 21.099 43.339 40.189 52.963s36.529 7.917 36.529 7.917c-17.439 119.234 176.112 103.673 145.899 0.956 0 0 52.46-1.16 66.239-48.595s-17.367-75.69-17.367-75.69c0 0 53.609-28.051 51.815-87.020-1.722-58.969-52.173-83.744-78.224-83.948-26.051-0.137-45.786 8.258-46.289 8.463l-29.065 13.241-9.76 0.273 12.415-162.642 182.14 0.478 0.502-40.95-615.387 0.068-0.359 39.585 77.578-0.068v82.583l-78.152-0.341 0.646 39.722z" />
<glyph unicode="&#xe937;" glyph-name="project" d="M512-64c282.77 0 512 229.23 512 512s-229.23 512-512 512c-282.77 0-512-229.23-512-512s229.23-512 512-512zM714.776 228.571h-48v352h48c13.504 0 24.88-2.826 34.128-8.477s13.872-12.604 13.872-20.856v-293.333c0-7.949-4.624-14.823-13.872-20.621s-20.624-8.702-34.128-8.712v0 0zM378.776 228.571v383.616h25.6v31.968c0 26.64 7.467 49.369 22.4 68.188s33.067 28.228 54.4 28.228h51.2c21.333 0 39.467-9.409 54.4-28.228s22.4-41.548 22.4-68.188v-31.968h25.6v-383.616h-256zM570.776 612.571c0 18.005-3.168 33.173-9.504 45.504s-13.835 18.496-22.496 18.496h-64c-9.003 0-16.587-6.165-22.752-18.496s-9.248-27.499-9.248-45.504v-64h128v64zM250.776 257.905v293.333c0 8.252 4.624 15.204 13.872 20.856s20.624 8.477 34.128 8.477h48v-352h-48c-13.504 0-24.88 2.904-34.128 8.712s-13.872 12.682-13.872 20.621v0 0z" />
<glyph unicode="&#xe938;" glyph-name="job" d="M512.378 721.881c132.607-0.204 239.89-110.284 240.117-246.381-0.138-74.428-28.845-140.887-67.071-197.037 57.532 31.061 130.089 96.219 130.138 197.037-0.048 171.81-135.786 310.976-303.184 311.017h-0.902c-167.392-0.041-303.139-139.207-303.181-311.017 0.042-100.817 72.583-165.976 130.137-197.037-38.222 56.15-66.952 122.609-67.071 197.037 0.23 136.098 107.514 246.177 240.115 246.381h0.902zM511.523 953.008c-257.161 0-465.471-213.739-465.514-477.393 0-70.738 15.036-137.933 41.932-198.328 53.983-121.030 155.818-194.574 280.713-227.99l-8.474 17.975c-95.373 47.941-172.503 141.879-215.045 237.665-23.108 51.992-35.969 109.785-36.081 170.678 0.36 227.98 180.211 412.319 402.469 412.793 222.208-0.474 402.013-184.813 402.395-412.793-0.292-169.943-100.301-336.35-243.229-407.469l-7.261-19.558c182.449 57.481 313.535 217.932 313.562 427.027-0.047 263.654-208.402 477.393-465.467 477.393zM646.409 330.444c13.358-168.731-77.425-376.135-77.425-376.135s-23.016-11.312-57.196-11.312c-34.088 0-57.729 11.312-57.729 11.312s-90.832 207.404-77.475 376.135c0 0 21.413 70.944 135.976 70.944 114.565 0 133.849-70.944 133.849-70.944zM613.97 541.53c0-58.054-45.891-105.13-102.494-105.13-56.556 0-102.447 47.076-102.447 105.13 0 58.042 45.891 105.108 102.447 105.108 56.603 0.001 102.494-47.066 102.494-105.108z" />
<glyph unicode="&#xe939;" glyph-name="eyes" horiz-adv-x="1707" d="M853.029 22.366c312.883 0 737.284 319.632 766.778 407.499-11.51 96.262-410.938 444.385-766.778 444.385-338.494 0-766.978-277.286-767.018-446.506 8.905-83.368 420.088-405.379 767.018-405.379v0zM853.029-62.864c-355.444 0-852.197 334.407-852.197 489.877 0 246.365 499.724 532.472 852.197 532.472 385.709 0 852.209-374.707 852.209-532.472 0-131.277-509.881-489.877-852.209-489.877v0 0 0zM853.029 235.337c117.434 0 213.058 95.587 213.058 212.979 0 117.384-95.624 212.965-213.058 212.965-117.432 0-213.048-95.581-213.048-212.965 0-117.392 95.616-212.979 213.048-212.979v0zM853.029 150.107c-164.772 0-298.312 133.498-298.312 298.21 0 164.706 133.54 298.198 298.312 298.198 164.782 0 298.318-133.49 298.318-298.198 0-164.712-133.536-298.21-298.318-298.21v0 0 0z" />
<glyph unicode="&#xe93a;" d="M506.415-50.122c-271.647 0-491.786 222.889-491.786 497.747s220.139 497.747 491.786 497.747c271.647 0 491.786-222.889 491.786-497.747s-220.139-497.747-491.786-497.747zM506.415-20.864c255.407 0 462.529 209.709 462.529 468.489s-207.122 468.489-462.529 468.489c-255.407 0-462.529-209.709-462.529-468.489s207.122-468.489 462.529-468.489zM506.415 31.519c-227.044 0-411.063 186.317-411.063 416.106s184.019 416.106 411.063 416.106c227.044 0 411.063-186.317 411.063-416.106s-184.019-416.106-411.063-416.106zM506.415 46.147c218.924 0 396.434 179.728 396.434 401.478s-177.51 401.478-396.434 401.478c-218.924 0-396.434-179.728-396.434-401.478s177.51-401.478 396.434-401.478z" />
<glyph unicode="&#xe93b;" d="M518.951 611.781h383.567c-9.237 22.022-20.188 43.090-32.853 63.015h-350.715v-63.015zM817.007 153.995h-610.965c22.949-23.833 48.565-44.997 76.466-63.015h457.938c27.996 18.018 53.612 39.182 76.561 63.015zM518.951 742.005h298.055c-22.949 23.833-48.565 44.997-76.466 63.015h-221.589v-63.015zM518.951 481.652h415.087c-1.714 21.45-4.952 42.518-9.713 63.015h-405.374v-63.015zM933.943 414.348h-844.839c1.714-21.45 4.952-42.518 9.713-63.015h825.413c4.761 20.496 8.094 41.565 9.713 63.015zM902.519 284.219h-781.99c9.237-22.022 20.188-43.090 32.853-63.015h716.284c12.665 19.924 23.616 40.993 32.853 63.015z" />
<glyph unicode="&#xe93c;" d="M740.541 805.019c-64.182 41.279-140.076 65.779-221.589 67.114v-67.114h221.589zM518.951 674.795h350.81c-15.331 24.119-32.948 46.713-52.66 67.209h-298.055v-67.209h-0.095zM518.951 544.572h405.374c-5.428 23.166-12.665 45.664-21.711 67.209h-383.663v-67.209zM518.951 414.348h415.087c0.857 11.059 1.333 22.308 1.333 33.652s-0.476 22.498-1.333 33.652h-415.087v-67.305zM924.23 351.428h-825.413c5.428-23.166 12.665-45.664 21.711-67.209h781.99c9.046 21.545 16.284 43.948 21.711 67.209zM869.666 221.205h-716.284c15.331-24.119 32.948-46.713 52.66-67.209h610.965c19.712 20.496 37.328 42.995 52.66 67.209v0zM740.541 90.981h-458.034c65.801-42.328 143.981-67.019 227.874-67.209h2.095c84.084 0.191 162.264 24.882 228.065 67.209z" />
<glyph unicode="&#xe93d;" d="M518.951 481.652v390.481c-2.095 0-4.19 0.095-6.285 0.095h-2.095c-53.612-0.095-104.938-10.201-152.075-28.6l3.714-11.535h18.855l-15.331-11.154 5.809-18.018-15.331 11.154-15.331-11.154 5.809 18.018-15.236 11.154c-78.275-36.894-143.504-97.048-186.737-171.598l3.809-11.726h18.95l-15.331-11.154 5.904-18.018-15.331 11.154-15.331-11.154 5.809 18.018-0.571 0.381c-18.855-37.561-32.281-78.268-39.233-121.167l1.809-5.529h18.95l-15.331-11.154 5.904-18.018-14.569 10.582c-1.524-14.681-2.381-29.648-2.381-44.711 0-11.345 0.476-22.498 1.333-33.652h429.847v67.305zM158.048 436.369l-15.331 11.154-15.331-11.154 5.809 18.018-15.331 11.154h18.95l5.809 18.018 5.904-18.018h18.95l-15.331-11.154 5.904-18.018zM152.144 546.097l5.904-18.018-15.331 11.154-15.426-11.249 5.809 18.018-15.331 11.154h18.95l5.809 18.018 5.904-18.018h18.95l-15.236-11.059zM205.565 500.242l5.809-18.018-15.331 11.154-15.331-11.154 5.809 18.018-15.331 11.154h18.95l5.904 18.018 5.904-18.018h18.95l-15.331-11.154zM205.565 591.856l5.809-18.018-15.331 11.154-15.331-11.154 5.809 18.018-15.331 11.154h18.95l5.904 18.018 5.904-18.018h18.95l-15.331-11.154zM205.565 683.566l5.809-18.018-15.331 11.154-15.331-11.154 5.809 18.018-15.331 11.154h18.95l5.904 18.018 5.904-18.018h18.95l-15.331-11.154zM264.795 436.369l-15.331 11.154-15.331-11.154 5.904 18.018-15.331 11.154h18.95l5.809 18.018 5.809-18.018h18.95l-15.331-11.154 5.904-18.018zM258.891 546.097l5.904-18.018-15.331 11.154-15.331-11.249 5.904 18.018-15.331 11.154h18.95l5.809 18.018 5.809-18.018h18.95l-15.331-11.059zM258.891 637.711l5.904-18.018-15.331 11.154-15.331-11.154 5.904 18.018-15.331 11.154h18.95l5.809 18.018 5.809-18.018h18.95l-15.331-11.154zM258.891 729.326l5.904-18.018-15.331 11.154-15.331-11.154 5.904 18.018-15.331 11.154h18.95l5.809 18.018 5.809-18.018h18.95l-15.331-11.154zM312.313 500.242l5.904-18.018-15.331 11.154-15.426-11.154 5.904 18.018-15.331 11.154h18.95l5.809 18.018 5.904-18.018h18.95l-15.331-11.154zM312.313 591.856l5.904-18.018-15.331 11.154-15.331-11.154 5.904 18.018-15.331 11.154h18.95l5.809 18.018 5.904-18.018h18.95l-15.426-11.154zM312.313 683.566l5.904-18.018-15.331 11.154-15.331-11.154 5.904 18.018-15.331 11.154h18.95l5.809 18.018 5.904-18.018h18.95l-15.426-11.154zM312.313 775.18l5.904-18.018-15.331 11.154-15.331-11.154 5.904 18.018-15.426 11.154h18.95l5.809 18.018 5.904-18.018h18.95l-15.331-11.154zM371.543 436.369l-15.331 11.154-15.331-11.154 5.809 18.018-15.331 11.154h18.95l5.904 18.018 5.904-18.018h18.95l-15.331-11.154 5.809-18.018zM365.734 546.097l5.809-18.113-15.331 11.154-15.331-11.154 5.809 18.018-15.331 11.154h18.95l5.904 18.018 5.904-18.018h18.95l-15.331-11.059zM365.734 637.711l5.809-18.018-15.331 11.154-15.331-11.154 5.809 18.018-15.331 11.154h18.95l5.904 18.018 5.904-18.018h18.95l-15.331-11.154zM365.734 729.326l5.809-18.018-15.331 11.154-15.331-11.154 5.809 18.018-15.331 11.154h18.95l5.904 18.018 5.904-18.018h18.95l-15.331-11.154zM419.060 500.242l5.809-18.018-15.236 11.154-15.331-11.154 5.904 18.018-15.331 11.154h18.95l5.904 18.018 5.809-18.018h18.95l-15.426-11.154zM419.060 591.856l5.809-18.018-15.236 11.154-15.331-11.154 5.809 18.018-15.331 11.154h18.95l5.904 18.018 5.809-18.018h18.95l-15.331-11.154zM419.060 683.566l5.809-18.018-15.236 11.059-15.331-11.154 5.904 18.018-15.331 11.154h18.95l5.904 18.018 5.809-18.018h18.95l-15.426-11.059zM419.060 775.18l5.809-18.018-15.236 11.154-15.331-11.154 5.904 18.018-15.426 11.154h18.95l5.904 18.018 5.809-18.018h18.95l-15.331-11.154zM478.385 436.369l-15.426 11.154-15.331-11.154 5.809 18.018-15.236 11.249h18.95l5.809 18.018 5.904-18.018h18.95l-15.331-11.249 5.904-18.018zM472.482 546.097l5.904-18.018-15.426 11.059-15.331-11.154 5.809 18.018-15.236 11.249h18.95l5.809 18.018 5.904-18.018h18.95l-15.331-11.154zM472.482 637.711l5.904-18.018-15.426 11.154-15.331-11.154 5.809 18.018-15.236 11.154h18.95l5.809 18.018 5.904-18.018h18.95l-15.331-11.154zM472.482 729.326l5.904-18.018-15.426 11.154-15.331-11.154 5.809 18.018-15.236 11.154h18.95l5.809 18.018 5.904-18.018h18.95l-15.331-11.154zM472.482 820.94l5.904-18.018-15.426 11.154-15.331-11.154 5.809 18.018-15.236 11.154h18.95l5.809 18.113 5.904-18.018h18.95l-15.331-11.249z" />
<glyph unicode="&#xe93e;" d="M353.45 841.722c-7.428-3.028-14.76-6.349-21.997-9.866h18.855l3.142 9.866z" />
<glyph unicode="&#xe93f;" d="M340.88 802.922l15.331 11.154 15.331-11.154-5.809 18.018 15.331 11.154h-18.95l-3.714 11.535c-1.619-0.667-3.238-1.239-4.856-1.907l-3.142-9.629h-18.855l15.331-11.154-5.999-18.018zM462.959 850.207l-5.809-18.113h-18.95l15.331-11.154-5.904-18.018 15.331 11.154 15.426-11.154-5.904 18.018 15.331 11.154h-18.95l-5.904 18.113zM308.694 786.334l-5.904 18.018-5.809-18.018h-18.95l15.331-11.154-5.904-18.113 15.331 11.249 15.426-11.249-5.904 18.113 15.331 11.154h-18.95zM415.442 786.334l-5.809 18.018-5.904-18.018h-18.95l15.331-11.154-5.809-18.113 15.331 11.249 15.331-11.249-5.904 18.113 15.426 11.154h-19.045zM249.464 758.593l-5.904-18.113h-18.95l15.331-11.154-5.809-18.018 15.331 11.154 15.331-11.154-5.904 18.018 15.331 11.154h-18.95l-5.809 18.113zM356.211 758.593l-5.809-18.113h-18.95l15.236-11.154-5.809-18.018 15.331 11.154 15.331-11.154-5.809 18.018 15.331 11.154h-18.95l-5.904 18.113zM462.959 758.593l-5.809-18.113h-18.95l15.331-11.154-5.904-18.018 15.331 11.154 15.426-11.154-5.904 18.018 15.331 11.154h-18.95l-5.904 18.113zM201.947 694.72l-5.904 18.018-5.904-18.018h-18.95l15.331-11.154-5.809-18.113 15.331 11.154 15.331-11.154-5.809 18.113 15.331 11.154h-18.95zM308.694 694.72l-5.904 18.018-5.809-18.018h-18.95l15.331-11.154-5.904-18.113 15.331 11.154 15.426-11.154-5.904 18.113 15.331 11.154h-18.95zM415.442 694.72l-5.809 18.018-5.904-18.018h-18.95l15.331-11.154-5.809-18.113 15.331 11.154 15.331-11.154-5.904 18.113 15.426 11.154h-19.045zM127.29 619.693l15.331 11.154 15.331-11.154-5.904 18.018 15.331 11.154h-18.95l-3.809 11.726c-4.285-7.341-8.285-14.872-12.094-22.403l0.571-0.381-5.809-18.113zM249.464 666.978l-5.904-18.113h-18.95l15.331-11.154-5.809-18.018 15.331 11.154 15.331-11.154-5.904 18.018 15.331 11.154h-18.95l-5.809 18.113zM356.211 666.978l-5.809-18.113h-18.95l15.236-11.154-5.809-18.018 15.331 11.154 15.331-11.154-5.809 18.018 15.331 11.154h-18.95l-5.904 18.113zM462.959 666.978l-5.809-18.113h-18.95l15.331-11.154-5.904-18.018 15.331 11.154 15.426-11.154-5.904 18.018 15.331 11.154h-18.95l-5.904 18.113zM201.947 603.010l-5.904 18.113-5.904-18.113h-18.95l15.331-11.154-5.809-18.018 15.331 11.154 15.331-11.154-5.809 18.018 15.331 11.154h-18.95zM308.694 603.010l-5.904 18.113-5.809-18.113h-18.95l15.331-11.154-5.904-18.018 15.331 11.154 15.426-11.154-5.904 18.018 15.331 11.154h-18.95zM415.442 603.010l-5.809 18.113-5.904-18.113h-18.95l15.331-11.154-5.809-18.018 15.331 11.154 15.331-11.154-5.904 18.018 15.426 11.154h-19.045zM142.621 575.269l-5.809-18.018h-18.95l15.331-11.154-5.904-18.113 15.331 11.154 15.426-11.154-5.904 18.113 15.331 11.154h-18.95l-5.904 18.018zM249.464 575.269l-5.904-18.018h-18.95l15.331-11.154-5.809-18.113 15.331 11.154 15.331-11.154-5.904 18.113 15.331 11.154h-18.95l-5.809 18.018zM356.211 575.269l-5.809-18.018h-18.95l15.236-11.154-5.809-18.113 15.331 11.154 15.331-11.154-5.809 18.113 15.331 11.154h-18.95l-5.904 18.018zM462.959 575.269l-5.809-18.018h-18.95l15.331-11.154-5.904-18.113 15.331 11.154 15.426-11.154-5.904 18.113 15.331 11.154h-18.95l-5.904 18.018zM104.626 482.224l-5.904 18.018 15.331 11.154h-18.95l-1.809 5.529c-1.333-8.008-2.381-16.016-3.238-24.119l14.569-10.582zM201.947 511.396l-5.904 18.113-5.904-18.113h-18.95l15.331-11.154-5.809-18.018 15.331 11.154 15.331-11.154-5.809 18.018 15.331 11.154h-18.95zM308.694 511.396l-5.904 18.113-5.809-18.113h-18.95l15.331-11.154-5.904-18.018 15.331 11.154 15.426-11.154-5.904 18.018 15.331 11.154h-18.95zM415.442 511.396l-5.809 18.113-5.904-18.113h-18.95l15.331-11.154-5.809-18.018 15.331 11.154 15.331-11.154-5.904 18.018 15.426 11.154h-19.045zM148.525 465.636l-5.904 18.018-5.809-18.018h-18.95l15.331-11.249-5.904-18.018 15.331 11.154 15.426-11.154-5.904 18.018 15.331 11.249h-18.95zM255.273 465.636l-5.809 18.018-5.904-18.018h-18.95l15.331-11.249-5.809-18.018 15.331 11.154 15.331-11.154-5.904 18.018 15.331 11.249h-18.95zM362.115 465.636l-5.904 18.018-5.809-18.018h-18.95l15.236-11.249-5.809-18.018 15.331 11.154 15.331-11.154-5.809 18.018 15.331 11.249h-18.95zM468.863 465.636l-5.904 18.018-5.809-18.018h-18.95l15.331-11.249-5.904-18.018 15.331 11.154 15.426-11.154-5.904 18.018 15.331 11.249h-18.95z" />
<glyph unicode="&#xe940;" d="M506.415-50.122c-271.647 0-491.786 222.889-491.786 497.747s220.139 497.747 491.786 497.747c271.647 0 491.786-222.889 491.786-497.747s-220.139-497.747-491.786-497.747zM506.415-20.864c255.407 0 462.529 209.709 462.529 468.489s-207.122 468.489-462.529 468.489c-255.407 0-462.529-209.709-462.529-468.489s207.122-468.489 462.529-468.489zM506.415 31.519c-227.044 0-411.063 186.317-411.063 416.106s184.019 416.106 411.063 416.106c227.044 0 411.063-186.317 411.063-416.106s-184.019-416.106-411.063-416.106z" />
<glyph unicode="&#xe941;" d="M642.973 706.969h-279.897v130.762c0 0-7.814-2.47-17.502-6.896-3.437-1.57-8.573-3.783-13.533-6.25s-32.7-17.266-43.225-23.892c-11.374-7.16-27.537-18.554-40.807-29.445s-24.306-21.476-24.306-21.476v-42.803h-38.555c0 0-22.544-28.986-30.932-45.174-5.105-9.851-22.436-39.706-31.425-63.695s-9.402-29.605-9.402-29.605h110.314v-162.506h139.372v162.506h279.897v138.473z" />
<glyph unicode="&#xe942;" d="M642.973 459.778l-426.709 282.637c0 0-5.811-5.768-12.474-13.108s-11.692-13.441-15.706-18.481c-3.253-4.085-8.435-10.403-12.972-16.752-2.235-3.127-6.006-8.562-9.092-13.181s-5.64-8.655-5.64-8.655l401.965-266.247h80.629v53.787z" />
<glyph unicode="&#xe943;" d="M114.094 572.36l437.135 288.958c0 0 5.111-0.555 10.297-1.281 1.804-0.252 5.281-0.71 9.559-1.41s19.030-3.353 28.214-5.579c8.21-1.991 15.928-3.97 22.46-5.879s21.213-6.858 21.213-6.858v-24.623l-547.576-362.695c0 0-0.085 6.834 0.55 16.519s2.857 33.615 4.779 45.888c1.583 10.107 4.6 24.401 7.472 35.85s5.895 21.11 5.895 21.11z" />
<glyph unicode="&#xe944;" d="M642.973 678.359h-308.693v147.273c0 0-4.156-1.873-11.863-5.79s-20.779-11.064-29.043-16.321c-6.188-3.936-10.364-6.382-21.061-13.827s-19.812-14.85-19.812-14.85v-96.486h-88.121c0 0-10.739-15.708-22.576-38.466s-19.213-42.787-19.213-42.787h129.909v-191.116h81.781v191.116h308.693v81.253z" />
<glyph unicode="&#xe945;" d="M642.973 407.135v36.621l-187.75 124.74h-55.288l243.038-161.361zM571.129 858.509l-208.052-137.807v-13.733h34.555l215.375 142.657c0 0-13.555 3.577-20.346 5.017-3.331 0.707-8.796 1.896-13.275 2.674s-8.257 1.192-8.257 1.192zM186.845 568.496l-86.689-57.556c0 0-1.773-12.181-2.433-18.266s-1.9-21.686-1.9-21.686l127.88 84.92v12.588h-36.859zM185.107 706.969h4.042l-2.691 1.783-1.351-1.783z" />
<glyph unicode="&#xe946;" d="M294.129 278.747l20.73-66.709 65.644 24.153-39.156-57.508 59.886-35.655-69.099-5.751 9.213-69.009-47.218 50.607-16.455-17.216c0 0-6.717 4.637-10.068 7.060s-14.196 10.485-14.196 10.485l2.715 18.074-25.894 2.072c0 0-7.054 6.597-10.557 10.024s-8.322 8.502-8.322 8.502l34.408 20.808-38.005 57.508 64.493-24.153 21.881 66.709zM818.133 514.529l10.365-32.204 32.246 11.502-19.578-28.754 29.943-17.252-34.55-2.3 4.607-33.355-23.033 24.153-23.033-24.153 4.607 33.355-33.398 2.3 28.791 17.252-18.427 28.754 31.095-11.502 10.365 32.204z" />
<glyph unicode="&#xe947;" glyph-name="Canada" d="M506.415-50.122c-271.647 0-491.786 222.889-491.786 497.747s220.139 497.747 491.786 497.747c271.647 0 491.786-222.889 491.786-497.747s-220.139-497.747-491.786-497.747zM506.415-20.864c255.407 0 462.529 209.709 462.529 468.489s-207.122 468.489-462.529 468.489c-255.407 0-462.529-209.709-462.529-468.489s207.122-468.489 462.529-468.489zM506.415 31.519c-227.044 0-411.063 186.317-411.063 416.106s184.019 416.106 411.063 416.106c227.044 0 411.063-186.317 411.063-416.106s-184.019-416.106-411.063-416.106zM506.415 46.147c218.924 0 396.434 179.728 396.434 401.478s-177.51 401.478-396.434 401.478c-218.924 0-396.434-179.728-396.434-401.478s177.51-401.478 396.434-401.478zM189.467 702.677l51.925 50.346v-609.469l-51.925 54.409c0 0-87.666 131.228-87.666 250.428s87.666 254.286 87.666 254.286zM786.67 748.922l71.46-87.257c0 0 52.168-141.731 52.168-222.203s-52.168-206.099-52.168-206.099l-71.46-81.538v597.097zM509.24 198.895h9.632l-2.89 115.016 8.669 7.188c38.528-4.493 73.203-8.087 111.731-12.58l-9.632 31.45c-1.926 5.391 0.963 11.681 4.816 15.276l111.731 88.958-23.117 10.783c-10.595 3.594-7.706 8.986-3.853 22.464l17.338 60.204-64.534-13.478c-6.742-0.899-10.595 2.696-11.558 6.29l-8.669 28.754-51.050-55.711c-7.706-8.986-22.154-8.986-17.338 11.681l22.154 114.117-29.859-15.276c-8.669-4.493-16.374-5.391-21.19 2.696l-42.381 73.682-41.418-73.682c-4.816-8.087-12.522-7.188-21.19-2.696l-29.859 15.276 22.154-114.117c4.816-20.667-10.595-20.667-17.338-11.681l-51.049 55.711-8.669-28.754c-0.963-3.594-4.816-8.087-11.558-7.188l-65.497 13.478 17.338-60.204c3.853-13.478 6.742-18.87-3.853-22.464l-23.117-10.783 111.731-88.958c4.816-3.594 6.742-8.986 4.816-15.276l-9.632-31.45c38.528 4.493 73.203 8.087 111.731 12.58l8.669-7.188-2.89-115.016h9.632v0.899z" />
<glyph unicode="&#xe948;" d="M506.415-50.122c-271.647 0-491.786 222.889-491.786 497.747s220.139 497.747 491.786 497.747c271.647 0 491.786-222.889 491.786-497.747s-220.139-497.747-491.786-497.747zM506.415-20.864c255.407 0 462.529 209.709 462.529 468.489s-207.122 468.489-462.529 468.489c-255.407 0-462.529-209.709-462.529-468.489s207.122-468.489 462.529-468.489zM506.415 31.519c-227.044 0-411.063 186.317-411.063 416.106s184.019 416.106 411.063 416.106c227.044 0 411.063-186.317 411.063-416.106s-184.019-416.106-411.063-416.106z" />
<glyph unicode="&#xe949;" d="M769.675 475.799h36.859l11.518 35.477 11.518-35.477h38.011l-31.1-21.744 11.518-35.477-29.948 21.744-29.948-21.744 11.518 35.477z" />
<glyph unicode="&#xe94a;" d="M785.801 470.077h24.189l8.063 24.033 8.063-24.033h24.189l-19.581-13.733 6.911-24.033-19.581 14.877-19.581-14.877 6.911 24.033z" />
<glyph unicode="&#xe94b;" d="M642.973 706.969h-279.897v130.762c0 0-7.814-2.47-17.502-6.896-3.437-1.57-8.573-3.783-13.533-6.25s-32.7-17.266-43.225-23.892c-11.374-7.16-27.537-18.554-40.807-29.445s-24.306-21.476-24.306-21.476v-42.803h-38.555c0 0-22.544-28.986-30.932-45.174-5.105-9.851-22.436-39.706-31.425-63.695s-9.402-29.605-9.402-29.605h110.314v-162.506h139.372v162.506h279.897v138.473z" />
<glyph unicode="&#xe94c;" d="M642.973 459.778l-426.709 282.637c0 0-5.811-5.768-12.474-13.108s-11.692-13.441-15.706-18.481c-3.253-4.085-8.435-10.403-12.972-16.752-2.235-3.127-6.006-8.562-9.092-13.181s-5.64-8.655-5.64-8.655l401.965-266.247h80.629v53.787z" />
<glyph unicode="&#xe94d;" d="M114.094 572.36l437.135 288.958c0 0 5.111-0.555 10.297-1.281 1.804-0.252 5.281-0.71 9.559-1.41s19.030-3.353 28.214-5.579c8.21-1.991 15.928-3.97 22.46-5.879s21.213-6.858 21.213-6.858v-24.623l-547.576-362.695c0 0-0.085 6.834 0.55 16.519s2.857 33.615 4.779 45.888c1.583 10.107 4.6 24.401 7.472 35.85s5.895 21.11 5.895 21.11z" />
<glyph unicode="&#xe94e;" d="M642.973 678.359h-308.693v147.273c0 0-4.156-1.873-11.863-5.79s-20.779-11.064-29.043-16.321c-6.188-3.936-10.364-6.382-21.061-13.827s-19.812-14.85-19.812-14.85v-96.486h-88.121c0 0-10.739-15.708-22.576-38.466s-19.213-42.787-19.213-42.787h129.909v-191.116h81.781v191.116h308.693v81.253z" />
<glyph unicode="&#xe94f;" d="M642.973 407.135v36.621l-187.75 124.74h-55.288l243.038-161.361zM571.129 858.509l-208.052-137.807v-13.733h34.555l215.375 142.657c0 0-13.555 3.577-20.346 5.017-3.331 0.707-8.796 1.896-13.275 2.674s-8.257 1.192-8.257 1.192zM186.845 568.496l-86.689-57.556c0 0-1.773-12.181-2.433-18.266s-1.9-21.686-1.9-21.686l127.88 84.92v12.588h-36.859zM185.107 706.969h4.042l-2.691 1.783-1.351-1.783z" />
<glyph unicode="&#xe950;" glyph-name="live" horiz-adv-x="951" d="M475.432-63.983c-16.328 0-29.605 12.999-29.605 28.972v93.009c0 15.979 13.277 28.978 29.605 28.978s29.612-12.918 29.612-28.785v-93.202c0-15.974-13.283-28.972-29.612-28.972v0zM784.449 43.044c-7.892 0-15.331 3.026-20.943 8.518l-67.205 65.761c-5.606 5.492-8.698 12.772-8.698 20.495 0 7.718 3.086 14.997 8.698 20.489 5.648 5.533 13.11 8.577 21.002 8.577 7.809 0 15.17-2.997 20.733-8.442l67.342-65.901c11.54-11.299 11.54-29.679 0-40.978-5.611-5.496-13.038-8.516-20.93-8.516v0zM156.672 43.044c-7.892 0-15.355 3.049-21.002 8.582-5.612 5.492-8.698 12.765-8.698 20.489 0 7.718 3.092 14.997 8.698 20.489l67.205 65.767c5.612 5.486 13.044 8.512 20.943 8.512 7.887 0 15.325-3.020 20.931-8.512 11.546-11.299 11.546-29.679 0-40.978l-67.342-65.901c-5.565-5.45-12.931-8.447-20.734-8.447v0zM475.437 141.844c-111.49 0-208.705 73.812-236.418 179.493-0.681 2.582-3.060 4.386-5.785 4.387h-233.015v71.346c0.072 0.337 0.109 0.679 0.113 1.023 2.233 116.186 48.65 226.71 130.701 311.219 81.747 84.199 191.577 135.226 309.251 143.679 3.118 0.228 5.529 2.77 5.528 5.83v71.697c0 15.979 13.283 28.978 29.612 28.978s29.612-12.918 29.612-28.785v-71.89c-0.001-3.060 2.41-5.602 5.528-5.83 117.68-8.46 227.511-59.487 309.258-143.679 82.046-84.508 128.468-195.034 130.701-311.219 0.005-0.362 0.047-0.719 0.12-1.064v-71.311h-233.015c-2.725 0-5.105-1.804-5.785-4.387-27.702-105.676-124.924-179.488-236.407-179.488v0z" />
<glyph unicode="&#xe951;" glyph-name="mine" d="M721.323 665.57c0 144.652-97.997 242.907-231.855 242.907s-231.855-98.255-231.855-242.907c0-151.685 105.236-272.326 231.855-272.326s231.855 120.642 231.855 272.326zM772.847 665.57c0-178.193-126.181-323.85-283.378-323.85s-283.378 145.656-283.378 323.85c0 178.245 126.181 294.43 283.378 294.43s283.378-116.185 283.378-294.43zM489.597 341.033c493.851 0 488.905-309.758 488.905-309.758 3.735-28.106-16.281-50.905-44.799-50.905h-888.236c-28.467 0-49.617 23.108-44.774 50.905 0 0-4.946 309.758 488.905 309.758zM52.293 27.231l-0.85-4.792c0.824 4.689-3.426 9.455-5.977 9.455h888.236c-2.602 0-6.647-4.611-6.286-7.419l-0.515 3.813 0.077 3.813c0 1.030-0.155 4.045-0.644 8.604-1.040 9.404-2.762 18.72-5.152 27.874-8.084 31.261-22.576 60.5-42.558 85.864-65.125 83.39-187.931 135.068-389.027 135.068-201.121 0-323.901-51.678-389.052-135.068-19.982-25.363-34.474-54.603-42.558-85.864-2.628-10.176-4.276-19.553-5.152-27.874-0.339-2.926-0.545-5.866-0.618-8.81l0.077-4.663z" />
<glyph unicode="&#xe952;" glyph-name="mine-selected" d="M772.847 665.57c0-178.193-126.181-323.85-283.378-323.85s-283.378 145.656-283.378 323.85c0 178.245 126.181 294.43 283.378 294.43s283.378-116.185 283.378-294.43zM489.597 341.033c493.851 0 488.905-309.758 488.905-309.758 3.735-28.106-16.281-50.905-44.799-50.905h-888.236c-28.467 0-49.617 23.108-44.774 50.905 0 0-4.946 309.758 488.905 309.758z" />
<glyph unicode="&#xe953;" glyph-name="my-asvosory" d="M512-64c-282.77 0-512 229.23-512 512s229.23 512 512 512c282.77 0 512-229.23 512-512s-229.23-512-512-512zM322.608 161.632c28.121 0 71.011 10.095 109.37 38.153 27.223-7.972 55.322-12.020 83.55-12.038 158.135 0 286.799 122.781 286.799 273.684 0 150.888-128.655 273.641-286.812 273.641-158.039 0-286.628-122.764-286.628-273.641 0-82.702 38.029-158.96 104.787-211.218-11.382-17.202-24.237-30.321-38.306-39.069-17.491-10.856-17.491-22.838-15.938-29.008 3.386-13.418 18.312-20.504 43.179-20.504zM379.265 500.938v0 0c22.622 0 40.96-18.338 40.96-40.96v0 0c0-22.622-18.338-40.96-40.96-40.96v0 0c-22.622 0-40.96 18.338-40.96 40.96v0 0c0 22.622 18.338 40.96 40.96 40.96zM652.486 500.938v0 0c22.622 0 40.96-18.338 40.96-40.96v0 0c0-22.622-18.338-40.96-40.96-40.96v0 0c-22.622 0-40.96 18.338-40.96 40.96v0 0c0 22.622 18.338 40.96 40.96 40.96zM516.133 500.938v0 0c22.622 0 40.96-18.338 40.96-40.96v0 0c0-22.622-18.338-40.96-40.96-40.96v0 0c-22.622 0-40.96 18.338-40.96 40.96v0 0c0 22.622 18.338 40.96 40.96 40.96z" />
<glyph unicode="&#xe954;" glyph-name="my-collection" d="M512-64c-282.77 0-512 229.23-512 512s229.23 512 512 512c282.77 0 512-229.23 512-512s-229.23-512-512-512zM814.8 509.491c-6.794 19.269-23.906 33.139-44.663 36.194l-146.41 21.454-63.584 130.035c-9.192 18.827-29.051 30.995-50.599 30.995-21.494 0-41.326-12.167-50.545-30.995l-63.61-130.048-146.397-21.48c-20.77-2.988-37.896-16.844-44.689-36.221-6.78-19.564-1.729-40.817 13.172-55.463l107.456-105.727-24.924-146.504c-3.497-20.422 5.588-41.366 23.209-53.386 17.233-11.591 40.334-12.864 58.894-3.109l127.462 67.657 127.543-67.671c8.254-4.355 17.514-6.66 26.8-6.66 11.444 0 22.526 3.377 32.107 9.822 17.541 11.966 26.613 32.897 23.115 53.319l-24.911 146.517 107.469 105.727c14.874 14.66 19.926 35.926 13.105 55.544zM507.763 513.766c-27.443 0-49.554-8.375-65.687-24.871-26.934-27.537-26.358-67.537-26.318-69.239 0.161-7.29 6.124-13.079 13.387-13.079 7.638 0.134 13.507 6.244 13.4 13.628 0 0.308-0.241 30.74 18.814 50.076 10.894 11.069 26.519 16.67 46.391 16.67 7.397 0 13.4 6.003 13.4 13.4s-5.99 13.414-13.387 13.414z" />
<glyph unicode="&#xe955;" glyph-name="my-notice" horiz-adv-x="878" d="M756.107 231.18l-60.765 98.919v206.738c0 43.107-16.923 88.554-47.655 127.969-31.261 40.099-75.152 71.476-123.581 88.351-1.964 0.608-6.091 1.827-12.155 3.44v6.886c0 37.3-32.796 67.647-73.107 67.647s-73.107-30.346-73.107-67.647v-6.39c-5.648-1.493-9.228-2.555-9.639-2.679-49.804-16.676-94.444-48.019-126.331-88.455-31.306-39.699-48.546-85.556-48.546-129.123v-206.739l-65.024-105.892c-7.823-12.62-7.774-28.332 0.135-41.012 7.861-12.597 22.576-20.423 38.402-20.423h160.685c9.213-55.367 61.052-97.9 123.427-97.9s114.215 42.533 123.427 97.9h160.658c24.493 0 44.419 18.415 44.419 41.050 0 10.276-3.97 19.885-11.243 27.36zM438.846 795.818c18.672 0 33.971-13.621 34.901-30.688-3.917 0.686-7.883 1.314-11.827 1.845-1.69 0.227-3.379 0.24-5.026 0.058-0.68 0.092-1.372 0.188-2.074 0.288-4.875 0.681-10.401 1.452-16.564 1.452-6.158 0-11.68-0.771-16.554-1.45-0.597-0.083-1.186-0.165-1.766-0.245-1.708 0.213-3.458 0.216-5.213-0.013-3.595-0.468-7.196-1.013-10.747-1.609 1.103 16.913 16.318 30.363 34.872 30.363zM438.846 100.182c-41.261 0-75.861 26.812-84.579 62.588h169.16c-8.72-35.777-43.319-62.588-84.581-62.588z" />
<glyph unicode="&#xe956;" glyph-name="my-evaluation" d="M512-64c-282.77 0-512 229.23-512 512s229.23 512 512 512c282.77 0 512-229.23 512-512s-229.23-512-512-512zM327.68 714.24c-22.622 0-40.96-18.338-40.96-40.96v-450.56c0-22.622 18.338-40.96 40.96-40.96h368.64c22.622 0 40.96 18.338 40.96 40.96v450.56c0 22.622-18.338 40.96-40.96 40.96h-368.64zM389.12 591.36h245.76c11.311 0 20.48-9.169 20.48-20.48v0 0c0-11.311-9.169-20.48-20.48-20.48h-245.76c-11.311 0-20.48 9.169-20.48 20.48v0 0c0 11.311 9.169 20.48 20.48 20.48zM389.12 468.48h245.76c11.311 0 20.48-9.169 20.48-20.48v0 0c0-11.311-9.169-20.48-20.48-20.48h-245.76c-11.311 0-20.48 9.169-20.48 20.48v0 0c0 11.311 9.169 20.48 20.48 20.48zM389.12 345.6h245.76c11.311 0 20.48-9.169 20.48-20.48v0 0c0-11.311-9.169-20.48-20.48-20.48h-245.76c-11.311 0-20.48 9.169-20.48 20.48v0 0c0 11.311 9.169 20.48 20.48 20.48z" />
<glyph unicode="&#xe957;" glyph-name="my-expert" d="M512-64c-282.77 0-512 229.23-512 512s229.23 512 512 512c282.77 0 512-229.23 512-512s-229.23-512-512-512zM691.151 673.28h-358.302c-25.746 0-46.129-20.382-46.129-46.129v-358.302c0-25.746 20.382-46.129 46.129-46.129h358.302c25.746 0 46.129 20.382 46.129 46.129v358.302c0 25.746-20.382 46.129-46.129 46.129zM649.314 544.549c-9.655-67.584-68.657-119.077-137.314-119.077s-127.659 51.493-137.314 119.077v1.073h-1.073c-6.437 4.291-10.728 10.728-10.728 18.237 0 11.8 9.655 21.455 21.455 21.455s21.455-9.655 21.455-21.455c0-6.437-3.218-11.8-7.509-16.091l-1.073-1.073v-1.073c8.582-56.856 56.856-97.621 114.786-97.621s106.203 40.765 114.786 97.621v1.073l-1.073 1.073c-5.364 4.291-7.509 9.655-7.509 16.091 0 11.8 9.655 21.455 21.455 21.455s21.455-9.655 21.455-21.455c0-7.509-4.291-15.019-10.728-18.237l-1.073-1.073z" />
<glyph unicode="&#xe958;" glyph-name="my-sign" d="M512-64c-282.77 0-512 229.23-512 512s229.23 512 512 512c282.77 0 512-229.23 512-512s-229.23-512-512-512zM809.425 602.202l-188.399-208.182-13.32-84.085 72.15 24.273 186.086 205.525-56.517 62.47zM579.032 272.65l16.037 129.026 123.125 141.802 28.101 32.071c0.011 29.432 0 108.259 0 108.259s-71.259 0-99.691 0h-270.7c-28.249 0-99.691 0-99.691 0s0-80.536 0-110.172v-290.658c0-27.818 0-110.172 0-110.172s69.809 0 99.691 0h270.677c29.212 0 99.715 0 99.715 0s0 81.613 0 110.172v84.318l-24.909-24.684-33.12-32.997-109.234-36.966zM560.717 387.274c7.932-7.232 17.42-5.271 32.855 1.88l1.692 12.79c0 0 8.465 9.878 16.337 18.77-4.128 5.428-11.139 7.4-17.237 4.297-2.821-1.431-5.272-2.657-7.469-3.705 0.786 7.435 0.763 16.224-1.619 25.652-1.434 5.595-5.804 22.74-20.096 26.444-16.604 4.292-29.831-11.651-51.569-38.197l-10.545-12.749c-0.185 3.143-0.37 6.388-0.532 9.3-0.694 13.312-1.572 29.894-4.625 46.348-3.561 19.111-13.944 23.685-19.841 24.707-8.094 1.456-32.259 5.621-94.789-116.789-3.954-7.793-1.48-17.604 5.55-21.973 2.266-1.431 4.741-2.095 7.169-2.095 5.087 0 10.059 2.964 12.742 8.202 22.246 43.588 47.938 83.677 61.397 96.682 1.989-12.647 2.659-25.473 3.261-36.92 1.272-24.349 2.197-41.979 16.534-47.625 14.453-5.851 27.357 9.658 33.6 17.093l11.747 14.206c7.331 8.994 16.026 19.597 21.807 25.014 2.243-8.84 0.532-16.889-0.994-23.992-1.665-7.742-4.139-19.393 4.625-27.339z" />
<glyph unicode="&#xe959;" glyph-name="assistance" d="M512-64c-282.77 0-512 229.23-512 512s229.23 512 512 512c282.77 0 512-229.23 512-512s-229.23-512-512-512zM221.299 684.308c-22.388-27.633-80.372-177.695 132.366-393.142 224.131-227.079 372.208-156.623 397.078-131.054l-176.48 174.737c-20.959-20.677-33.7-38.963-85.476 2.737-34.186 27.583-73.614 64.68-107.801 106.553-23.972 29.325-5.116 43.775 16.797 65.44l-176.485 174.729zM280.426 754.024l-44.119-43.683 176.478-174.729 44.12 43.683c12.192 12.071 12.192 31.605 0 43.683l-132.359 131.047c-12.192 12.071-31.927 12.071-44.12 0zM634.889 399.557l-44.12-43.683 176.485-174.73 44.12 43.683c12.192 12.071 12.192 31.611 0 43.683l-132.359 131.047c-12.198 12.078-31.928 12.078-44.127 0z" />
<glyph unicode="&#xe95a;" glyph-name="1234" horiz-adv-x="1147" d="M693.497 28.26c-38.717-6.775-78.88-10.34-120.057-10.34-316.702 0-573.44 210.892-573.44 471.040s256.738 471.040 573.44 471.040c316.702 0 573.44-210.892 573.44-471.040 0-177.849-119.992-332.677-297.103-412.839 16.812-85.148 74.113-136.149 74.113-136.149-147.383 8.738-206.964 56.825-230.394 88.287zM307.2 386.56c33.932 0 61.44 27.508 61.44 61.44s-27.508 61.44-61.44 61.44c-33.932 0-61.44-27.508-61.44-61.44s27.508-61.44 61.44-61.44zM573.44 386.56c33.932 0 61.44 27.508 61.44 61.44s-27.508 61.44-61.44 61.44c-33.932 0-61.44-27.508-61.44-61.44s27.508-61.44 61.44-61.44zM839.68 386.56c33.932 0 61.44 27.508 61.44 61.44s-27.508 61.44-61.44 61.44c-33.932 0-61.44-27.508-61.44-61.44s27.508-61.44 61.44-61.44z" />
<glyph unicode="&#xe95b;" glyph-name="chat" d="M896.071 171.412h-89.629v-175.265l-179.214 175.265h-537.598c-23.894 0.111-46.763 9.406-63.573 25.837s-26.183 38.654-26.056 61.774v613.365c0 48.388 40.1 87.612 89.629 87.612h806.484c49.528 0 89.629-39.223 89.629-87.612v-613.323c0.241-48.161-39.9-87.399-89.672-87.654v0zM224.008 609.512c-24.721 0-44.793-19.633-44.793-43.806s20.072-43.806 44.793-43.806c24.721 0 44.793 19.633 44.793 43.806 0.081 11.562-4.597 22.679-13.001 30.898s-19.843 12.863-31.792 12.908v0zM492.85 609.512c-24.721 0-44.793-19.633-44.793-43.806s20.072-43.806 44.793-43.806c24.721 0 44.793 19.633 44.793 43.806 0 24.215-20.072 43.806-44.793 43.806v0zM761.649 609.512c-24.721 0-44.793-19.633-44.793-43.806s20.072-43.806 44.793-43.806c24.721 0 44.793 19.633 44.793 43.806 0.081 11.562-4.597 22.679-13.001 30.898s-19.843 12.863-31.792 12.908v0z" />
<glyph unicode="&#xe95c;" glyph-name="phone" d="M869.221 244.824c-73.185 27.783-142.503 63.534-222.855-10.931-49.595-45.955-85.458-40.927-117.885-23.817-32.408 17.108-232.062 219.465-259.319 285.661-27.255 66.197-12.532 75.144 0 95.213 12.514 20.093 99.452 66.963 47.15 214.246-52.322 147.285-93.399 258.201-306.487 0-22.105-26.78 0-142.831 0-142.831s150.251-487.574 660.106-690.336c79.149-31.47 257.9 18.365 330.054 142.831 35.367 60.998-15.925 86.373-130.764 129.963z" />
<glyph unicode="&#xe95d;" glyph-name="collection2" horiz-adv-x="1081" d="M874.113-63.004l-333.883 174.703-333.883-174.703 63.768 369.917-270.115 261.995 373.318 53.961 166.912 336.408 166.912-336.467 373.318-53.961-270.055-261.995z" />
<glyph unicode="&#xe95e;" glyph-name="zfb" d="M311.753 204.785c-130.772 0-151.418 82.591-144.536 117.005 6.878 34.418 44.739 79.157 117.432 79.157 83.602 0 158.343-21.333 248.183-65.090-63.018-82.122-140.591-131.071-221.079-131.071zM958.721 283.932v440.512c0 94.985-77.027 172.052-172.051 172.052h-550.644c-94.988 0-172.055-77.032-172.055-172.052v-550.643c0-94.999 77.031-172.056 172.055-172.056h550.644c84.656 0 155.070 61.182 169.397 141.751-45.614 19.625-243.418 105.020-346.407 154.277-78.379-94.947-160.492-151.918-284.26-151.918-123.771 0-206.366 76.136-196.408 169.487 6.533 61.27 48.549 161.308 230.938 144.101 96.132-9.070 140.15-26.998 218.624-52.832 20.163 37.161 37.093 78.094 49.799 121.66h-347.571v34.414h171.945v61.946h-209.777v37.852h209.776v89.238c0 0 1.979 14.002 17.326 14.002h86.038v-103.24h223.68v-37.852h-223.687v-61.946h182.397c-16.73-68.328-42.119-131.013-74.016-185.875 53.053-19.135 294.256-92.877 294.256-92.877z" />
<glyph unicode="&#xe95f;" glyph-name="fashion" d="M512-64c-282.77 0-512 229.23-512 512s229.23 512 512 512c282.77 0 512-229.23 512-512s-229.23-512-512-512zM463.036 318.683c0 20.478 2.993 39.991 8.984 58.492s14.464 35.576 25.373 51.136c10.909 15.598 23.874 29.477 38.847 41.588 14.976 12.152 31.491 21.78 49.418 29.056 1.028 2.775 1.926 5.422 2.611 7.822l2.651 7.273c0.77 2.396 1.413 4.669 2.183 6.728 3.509 1.010 6.761 2.903 9.927 5.721 2.866 2.396 5.432 5.803 7.7 10.134 2.354 4.29 3.851 10.26 4.492 17.912 0.685 5.553 0.685 10.218-0.213 14.046-0.813 3.827-2.010 6.897-3.425 9.336-1.41 2.733-3.336 5.005-5.862 6.727 0 14.213-0.856 28.216-2.693 42.092-1.757 12.111-4.665 24.812-8.944 38.184-4.149 13.331-10.909 25.566-20.066 36.625-3.894 4.88-9.241 9.673-16.087 14.549-6.933 4.839-14.718 9.169-23.574 12.952-8.771 3.827-18.185 6.897-28.239 9.082-10.011 2.271-20.153 3.366-30.377 3.366-8.086 0-16.471-0.591-25.115-1.809-8.601-1.219-17.33-3.574-26.143-6.978-8.813-3.449-17.285-8.243-25.37-14.299-8.173-6.095-15.704-13.959-22.762-23.631-7.403-10.010-12.835-21.446-16.429-34.315-3.509-12.782-5.947-24.726-7.361-35.826-1.41-13.161-2.095-26.282-2.095-39.442-3.166-3.491-5.477-7.109-6.888-10.933-1.755-3.744-2.781-8.117-3.166-12.994-0.342-4.837 0.386-10.176 2.138-16.108 1.753-5.842 3.851-10.385 6.333-13.456 2.481-3.154 4.792-5.55 6.888-7.273 2.438-1.768 4.923-2.945 7.404-3.661 1.753-5.508 3.509-10.934 5.262-16.106 1.795-4.456 3.763-8.912 6.117-13.246 2.269-4.331 4.834-7.652 7.615-10.090 5.99-4.837 11.468-9.588 16.386-14.299 4.923-4.71 7.789-11.017 8.474-18.922 0.339-5.55 0.512-10.555 0.512-15.095 0-4.459-0.898-8.832-2.653-12.996-1.753-4.12-4.662-8.366-8.683-12.74-4.067-4.331-9.8-8.704-17.157-13.288-6.375-3.786-13.351-6.981-20.882-9.544-7.573-2.609-15.4-5.047-23.532-7.277-8.086-2.271-16.043-4.54-23.787-7.023-7.746-2.437-14.803-5.592-21.094-9.669-6.29-3.997-11.679-8.749-16.089-14.299-4.406-5.55-7.316-12.573-8.725-21.319-3.509-22.454-4.322-40.959-2.396-55.297 1.923-14.341 4.834-22.875 8.725-25.65 2.099-1.768 7.234-3.449 15.319-5.258 8.086-1.681 17.927-3.449 29.565-5.13 11.637-1.809 24.602-3.366 38.847-4.963 14.291-1.557 28.667-2.984 43.085-4.161s28.454-2.146 42.014-2.861c13.521-0.67 25.415-1.049 35.643-1.049h14.245c-8.471 14.508-15.101 30.064-19.808 46.506-4.745 16.441-7.141 33.682-7.141 51.68zM814.56 381.844c-8.856 19.932-20.708 37.341-35.597 52.227-15.019 14.844-32.645 26.618-52.884 35.281-20.323 8.661-41.887 12.993-64.861 12.993-23.235 0-44.969-4.331-65.292-12.993-20.196-8.662-37.823-20.437-52.796-35.281-15.018-14.928-26.828-32.295-35.642-52.227s-13.263-41.167-13.263-63.664c0-22.541 4.449-43.776 13.263-63.664 8.813-19.89 20.624-37.301 35.685-52.187 14.973-14.842 32.6-26.532 52.796-35.028 20.28-8.536 42.014-12.781 65.249-12.781 22.974 0 44.538 4.245 64.861 12.781 20.196 8.495 37.823 20.186 52.884 35.028 14.889 14.844 26.741 32.255 35.597 52.187 8.771 19.929 13.22 41.123 13.22 63.664 0 22.496-4.449 43.73-13.22 63.664zM624.803 348.455h0.684l-14.574-43.517-58.977 43.517h72.867zM667.029 265.040l38.923 26.747 17.378-64.627-56.302 37.879zM715.413 308.123l-0.002 0.003-66.758-46.858-53.867-34.108 21.99 68.146 0.086-0.025 0.634 2.262 0.662 2.048-0.072 0.054 17.931 51.923 0.634 2.028 24.356 64.167 30.534-69.311h78.527l-54.655-40.33z" />
<glyph unicode="&#xe960;" glyph-name="hide" horiz-adv-x="1328" d="M1321.001 470.513l-77.048 104.156c22.382 17.37 44.621 35.751 66.701 55.15 12.218 10.735 13.421 29.341 2.687 41.559s-29.341 13.422-41.561 2.687c-151.185-132.823-309.187-215.536-469.616-245.845-127.78-24.144-257.797-15.332-386.436 26.192-115.307 37.218-208.286 94.38-265.983 135.778-62.303 44.705-98.083 81.205-99.064 82.213-11.302 11.696-29.943 12.016-41.641 0.716-11.696-11.302-12.016-29.945-0.716-41.641 1.335-1.382 29.085-29.912 79.013-68.287l-69.339-89.545c-9.958-12.859-7.606-31.356 5.255-41.313 5.365-4.156 11.71-6.166 18.008-6.166 8.798 0 17.503 3.927 23.305 11.421l70.475 91.014c51.771-35.384 123.724-77.852 210.259-111.579l-46.723-100.851c-6.837-14.757-0.416-32.263 14.342-39.1 4.008-1.856 8.216-2.735 12.361-2.735 11.116 0 21.759 6.327 26.739 17.078l49.042 105.86c76.338-24.313 153.168-37.891 229.85-40.689v-112.125c0-16.265 13.185-29.449 29.449-29.449s29.449 13.184 29.449 29.449v112.091c40.715 1.45 81.343 5.95 121.777 13.512 43.313 8.1 86.4 19.736 129.185 34.858l51.677-107.357c5.072-10.537 15.593-16.682 26.555-16.682 4.283 0 8.636 0.938 12.752 2.92 14.654 7.055 20.816 24.653 13.762 39.307l-49.706 103.26c67.894 28.937 134.936 66.735 200.818 113.238l77.022-104.122c5.776-7.809 14.679-11.937 23.698-11.937 6.085 0 12.223 1.879 17.49 5.775 13.075 9.674 15.834 28.114 6.162 41.189z" />
<glyph unicode="&#xe961;" glyph-name="mark" horiz-adv-x="219" d="M0.131 856.394c-2.847 57.22 40.935 103.606 98.418 103.606h10.184c57.201 0 101.285-46.611 98.489-103.606l-31.474-641.518h-143.702l-31.915 641.518zM109.714-64c-40.396 0-73.143 32.747-73.143 73.143s32.747 73.143 73.143 73.143c40.396 0 73.143-32.747 73.143-73.143s-32.747-73.143-73.143-73.143z" />
<glyph unicode="&#xe962;" glyph-name="my-project" d="M512-64c-282.77 0-512 229.23-512 512s229.23 512 512 512c282.77 0 512-229.23 512-512s-229.23-512-512-512zM774.281 260.675v314.5c0 37.74-35.632 34.944-35.632 34.944h-200.968c-11.403 0-18.529 5.591-18.529 5.591s-8.552 13.978-24.23 36.342c-14.253 25.16-32.783 20.966-32.783 20.966h-155.359c-44.184 0-44.184-40.535-44.184-40.535v-369.013c0-46.127 35.632-40.536 35.632-40.536h444.695c37.059 0.001 31.357 37.742 31.357 37.742zM373.647 488.172h293.419c11.311 0 20.48-9.169 20.48-20.48v0 0c0-11.311-9.169-20.48-20.48-20.48h-293.419c-11.311 0-20.48 9.169-20.48 20.48v0 0c0 11.311 9.169 20.48 20.48 20.48zM374.574 392.974h293.419c11.311 0 20.48-9.169 20.48-20.48v0 0c0-11.311-9.169-20.48-20.48-20.48h-293.419c-11.311 0-20.48 9.169-20.48 20.48v0 0c0 11.311 9.169 20.48 20.48 20.48z" />
<glyph unicode="&#xe963;" glyph-name="doing" horiz-adv-x="819" d="M667.851 720.506l-25.656-95.751-194.537-137.908c-8.593-6.090-19.455-8.010-29.791-5.241s-18.788 9.852-23.193 19.438l-99.507 216.697 25.656 95.751 347.028-92.986zM751.965 563.456v0c-1.489-5.558-4.904-10.42-9.638-13.762l-200.317-141.086 103.43-220.105c2.496-5.306 3.038-11.266 1.536-16.873l-57.27-213.736c-3.578-13.353-17.568-21.195-31.263-17.525l-532.936 142.8c-13.218 4.162-22.439 15.41-18.313 30.808l57.271 213.737c2.347 8.76 3.713 9.514 9.68 13.867l199.725 138.875-102.937 222.343c-2.454 5.268-2.968 11.182-1.478 16.741l57.912 216.129c3.578 13.353 17.568 21.195 31.263 17.525l532.936-142.8c13.696-3.67 21.89-17.457 18.312-30.809l-57.912-216.129zM470.326 435.807l223.122 157.135 44.747 166.997-458.574 122.874-44.747-166.997 114.658-247.656c2.52-5.468 0.78-11.866-4.152-15.297l-222.434-154.768-44.073-164.483 458.574-122.874 44.073 164.483-115.246 245.263c-2.564 5.453-0.861 11.861 4.052 15.323z" />
<glyph unicode="&#xe964;" glyph-name="end" horiz-adv-x="1014" d="M353.35 336.48c-3.662-2.748-9.838-4.121-18.53-4.121h-105.696c-6.864 0-12.243 1.324-16.126 3.95-3.894 2.626-5.839 7.6-5.839 14.929v201.437c0 7.091 1.834 12.010 5.495 14.758 3.656 2.742 9.146 4.116 16.469 4.116h106.039c6.636 0 11.611-1.429 14.929-4.288 3.313-2.864 5.091-7.839 5.318-14.929s-1.49-12.071-5.146-14.929c-3.662-2.864-8.808-4.288-15.444-4.288h-83.044v-57.994h79.61c7.318 0 12.58-1.546 15.788-4.637 3.202-3.086 4.803-8.060 4.803-14.929 0-6.864-1.601-11.722-4.803-14.58-3.207-2.864-8.47-4.293-15.788-4.293h-79.61v-65.888h83.044c8.692 0 14.868-1.368 18.53-4.116 3.656-2.742 5.49-7.778 5.49-15.101s-1.834-12.353-5.49-15.095zM564.237 329.616c-3.086 2.742-5.661 5.49-7.722 8.237l-108.094 141.038v-135.549c0-4.581-1.717-8.697-5.146-12.359-3.435-3.656-9.151-5.49-17.162-5.49s-13.727 1.944-17.156 5.833c-3.429 3.889-5.146 7.894-5.146 12.015v212.073c0 4.121 1.141 7.839 3.429 11.157 2.288 3.313 7.55 4.975 15.788 4.975 4.576 0 8.287-1.374 11.151-4.116 2.858-2.748 5.318-5.495 7.379-8.237l108.438-145.847v140.357c0 4.116 1.717 8.116 5.152 12.010 3.429 3.889 9.146 5.833 17.156 5.833 8.005 0 13.727-1.834 17.156-5.49 3.435-3.662 5.146-7.783 5.146-12.359v-212.76c0-3.894-1.141-7.434-3.429-10.636s-7.434-4.808-15.444-4.808c-4.576 0-8.404 1.374-11.495 4.121zM651.763 332.359c-8.010 0-13.101 1.318-15.273 3.944-2.177 2.631-3.257 6.465-3.257 11.495v208.306c0 5.030 1.025 8.863 3.086 11.495 2.061 2.626 7.207 3.944 15.444 3.944l63.484 0.006c17.843 0 33.227-3.036 46.156-9.096 12.924-6.060 23.56-14.409 31.914-25.050 8.348-10.636 14.525-23.222 18.536-37.747 4-14.53 6.005-30.257 6.005-47.186 0-18.076-2.061-34.49-6.177-49.247-4.121-14.752-10.414-27.399-18.879-37.919-8.465-10.525-18.99-18.652-31.57-24.363-12.586-5.717-27.338-8.581-44.267-8.581h-65.201zM677.838 535.862v-167.811h39.126c37.52 0 56.277 28.485 56.277 85.448 0 13.040-1.030 24.707-3.086 35.005-2.061 10.293-5.612 18.929-10.642 25.909-5.036 6.974-11.666 12.292-19.904 15.954-8.232 3.662-18.646 5.495-31.227 5.495h-30.545zM506.98-60.988c-279.998 0-506.98 226.983-506.98 506.98s226.983 506.98 506.98 506.98c279.998 0 506.98-226.983 506.98-506.98s-226.983-506.98-506.98-506.98zM506.98-0.753c246.731 0 446.745 200.015 446.745 446.745s-200.015 446.745-446.745 446.745c-246.731 0-446.745-200.015-446.745-446.745s200.015-446.745 446.745-446.745z" />
<glyph unicode="&#xe965;" glyph-name="Shape" horiz-adv-x="3072" d="M3040.711 846.743c41.719 25.939 41.719 67.866 0 93.803-41.827 25.939-109.54 25.939-151.368 0l-1367.235-847.82-1344.665 833.821c-40.546 25.21-106.333 25.21-146.876 0-40.756-25.143-40.756-65.942 0-91.148l1396.33-865.995c5.457-3.384 12.089-5.042 18.398-7.497 2.46-2.056 3.744-4.578 6.845-6.502 41.72-25.872 109.436-25.872 151.155 0l1437.414 891.339z" />
<glyph unicode="&#xe966;" glyph-name="success" d="M781.092 643.652c-13.26 13.697-36.61 13.733-49.942-0.036l-301.585-313.242-138.279 143.634c-13.26 13.77-36.719 13.77-49.979 0-13.223-13.733-13.223-36.1 0-49.833l163.305-169.643c6.63-6.848 15.482-10.637 24.953-10.637 9.544 0 18.432 3.789 24.989 10.673l326.574 339.178c13.223 13.77 13.223 36.136-0.036 49.906zM511.855 896.572c-247.215 0-447.623-200.408-447.623-447.627 0-247.211 200.408-447.619 447.623-447.619s447.623 200.408 447.623 447.619c0 247.219-200.408 447.627-447.623 447.627zM511.855 75.926c-206.011 0-373.019 167.008-373.019 373.019s167.008 373.019 373.019 373.019 373.019-167.008 373.019-373.019-167.008-373.019-373.019-373.019z" />
<glyph unicode="&#xe967;" glyph-name="wxpay" horiz-adv-x="1202" d="M447.13 317.12c-4.801-3.263-11.201-4.895-17.603-4.895-14.402 0-25.604 8.157-32.004 19.578l-3.201 4.895-102.413 228.411c-1.599 3.263-1.599 4.895-1.599 8.157 0 9.789 8.001 19.579 19.202 19.579 4.8 0 8.001-1.632 11.201-3.263l120.015-88.101c8.001-6.527 19.202-9.79 30.404-9.79 6.401 0 12.802 1.632 19.203 3.263l566.473 257.78c-102.413 122.361-268.835 202.305-457.659 202.305-308.839 0-560.072-213.727-560.072-476.399 0-143.573 75.209-272.463 193.625-358.932 9.601-6.526 16.001-17.946 16.001-30.998 0-4.895-1.6-8.158-1.6-11.421-9.601-35.893-24.002-92.996-25.603-96.259-1.6-4.894-3.201-9.789-3.201-14.684 0-9.789 8.001-19.578 19.202-19.578 4.801 0 8.002 1.632 11.201 3.263l123.216 71.787c9.601 4.894 19.203 8.157 30.405 8.157 6.4 0 11.201-1.632 16.001-3.263 57.608-16.314 118.416-26.104 182.424-26.104 308.839 0 560.072 213.728 560.072 476.4 0 79.944-22.403 154.993-64.008 220.252l-646.484-376.878-3.2-3.262z" />
<glyph unicode="&#xe968;" glyph-name="fail" d="M511.104 960c282.274 0 511.104-228.829 511.104-511.104s-228.829-511.104-511.104-511.104c-282.276 0-511.104 228.829-511.104 511.104s228.828 511.104 511.104 511.104zM445.297 696.587l19.426-390.489h87.471l19.158 390.489c1.711 34.864-25.132 63.065-59.95 63.065h-6.199c-34.827 0-61.639-28.235-59.906-63.065zM512 136.348c24.589 0 44.522 19.933 44.522 44.522s-19.933 44.522-44.522 44.522c-24.589 0-44.522-19.933-44.522-44.522s19.933-44.522 44.522-44.522z" />
<glyph unicode="&#xe969;" glyph-name="pass" d="M510.975 960c-282.33 0-510.975-228.958-510.975-511.522s228.645-511.522 510.975-511.522c282.262 0 510.975 228.958 510.975 511.522s-228.713 511.522-510.975 511.522zM454.482 191.54c-69.736 88.487-151.778 155.906-209.208 176.973l135.371 84.274 65.634-130.624c0 0 106.657 265.46 274.843 353.945-4.102-63.203-20.511-117.981 8.204-185.4-73.839-16.854-225.618-206.468-274.844-299.169z" />
<glyph unicode="&#xe96a;" glyph-name="my-set" d="M512-64c-282.77 0-512 229.23-512 512s229.23 512 512 512c282.77 0 512-229.23 512-512s-229.23-512-512-512zM739.231 521.968c-4.736 15.042-10.956 29.413-18.406 43.019l7.464 7.465c26.738 26.744 26.738 70.083 0 96.831l-2.033 2.018c-26.754 26.748-70.077 26.748-96.817 0l-8.336-8.337c-13.71 7.19-28.174 13.151-43.285 17.618v12.016c0 37.813-30.658 68.466-68.461 68.466h-2.88c-37.809 0-68.471-30.653-68.471-68.466v-12.873c-14.459-4.481-28.316-10.31-41.463-17.304l-8.88 8.875c-26.71 26.748-70.068 26.748-96.811 0l-2.043-2.017c-26.709-26.744-26.709-70.083 0-96.831l8.587-8.587c-7.167-13.273-13.161-27.272-17.761-41.898h-12.456c-37.809 0-68.466-30.652-68.466-68.466v-2.87c0-37.813 30.653-68.471 68.466-68.471h10.908c4.496-15.463 10.565-30.25 17.907-44.264l-8.282-8.277c-26.748-26.748-26.748-70.102 0-96.85l2.003-2.043c26.739-26.738 70.102-26.738 96.841 0l7.43 7.435c13.911-7.617 28.616-13.96 44.019-18.73v-10.1c0-37.809 30.658-68.461 68.471-68.461h2.88c37.803 0 68.461 30.652 68.461 68.461v9.243c16.066 4.751 31.382 11.207 45.856 19.019l6.862-6.862c26.705-26.739 70.102-26.739 96.811 0l2.047 2.042c26.739 26.748 26.739 70.102 0 96.851l-7.161 7.16c7.622 14.342 13.906 29.502 18.53 45.386h7.881c37.803 0 68.466 30.657 68.466 68.47v2.87c0.009 37.809-30.653 68.462-68.456 68.462l-9.424-0.001zM509.569 342.55c-59.208 0-107.185 47.977-107.185 107.141 0 59.214 47.972 107.181 107.185 107.181 59.169 0 107.136-47.967 107.136-107.181 0-59.164-47.967-107.141-107.136-107.141z" />
<glyph unicode="&#xe96b;" d="M1023.942 448.029c0-282.754-229.217-511.971-511.971-511.971s-511.971 229.217-511.971 511.971c0 282.754 229.217 511.971 511.971 511.971s511.971-229.217 511.971-511.971z" />
<glyph unicode="&#xe96c;" d="M512 274.688c78.032 0 139.636-23.399 139.636-50.142s-61.604-50.142-139.636-50.142c-78.032 0-139.636 23.399-139.636 50.142s61.604 50.142 139.636 50.142z" />
<glyph unicode="&#xe96d;" d="M512 704.132c-106.195 0-192.024-88.738-192.024-199.298 0-45.097 14.547-85.829 39.278-119.288l152.746-181.841 154.201 180.386c24.73 33.459 39.278 74.191 39.278 119.288-1.455 110.559-87.284 200.752-193.479 200.752zM512 417.146c-50.915 0-93.103 42.187-93.103 93.103s42.187 93.103 93.103 93.103c50.915 0 93.103-42.187 93.103-93.103s-42.187-93.103-93.103-93.103z" />
<glyph unicode="&#xe96e;" d="M1023.942 448.029c0-282.754-229.217-511.971-511.971-511.971s-511.971 229.217-511.971 511.971c0 282.754 229.217 511.971 511.971 511.971s511.971-229.217 511.971-511.971z" />
<glyph unicode="&#xe96f;" d="M721.455 518.245l84.837 47.681c11.205 6.297 25.393 2.319 31.69-8.886 1.957-3.482 2.985-7.409 2.985-11.402v-223.319c0-12.853-10.42-23.273-23.273-23.273-4.27 0-8.458 1.175-12.105 3.396l-84.134 51.24v164.563z" />
<glyph unicode="&#xe970;" d="M279.273 610.909h418.909c12.853 0 23.273-10.42 23.273-23.273v-302.545c0-12.853-10.42-23.273-23.273-23.273h-418.909c-12.853 0-23.273 10.42-23.273 23.273v302.545c0 12.853 10.42 23.273 23.273 23.273z" />
<glyph unicode="&#xe971;" d="M372.364 529.455c0-19.28-15.629-34.909-34.909-34.909s-34.909 15.629-34.909 34.909c0 19.28 15.629 34.909 34.909 34.909s34.909-15.629 34.909-34.909z" />
<glyph unicode="&#xe972;" d="M1023.942 448.029c0-282.754-229.217-511.971-511.971-511.971s-511.971 229.217-511.971 511.971c0 282.754 229.217 511.971 511.971 511.971s511.971-229.217 511.971-511.971z" />
<glyph unicode="&#xe973;" d="M325.818 657.455h372.364c25.706 0 46.545-20.839 46.545-46.545v-372.364c0-25.706-20.839-46.545-46.545-46.545h-372.364c-25.706 0-46.545 20.839-46.545 46.545v372.364c0 25.706 20.839 46.545 46.545 46.545v0zM389.873 494.545c-9.67 0-17.509-7.839-17.509-17.509s7.839-17.509 17.509-17.509h244.255c9.67 0 17.509 7.839 17.509 17.509s-7.839 17.509-17.509 17.509h-244.255zM389.873 424.727c-9.67 0-17.509-7.839-17.509-17.509s7.839-17.509 17.509-17.509h244.255c9.67 0 17.509 7.839 17.509 17.509s-7.839 17.509-17.509 17.509h-244.255zM389.873 354.909c-9.67 0-17.509-7.839-17.509-17.509s7.839-17.509 17.509-17.509h244.255c9.67 0 17.509 7.839 17.509 17.509s-7.839 17.509-17.509 17.509h-244.255z" />
<glyph unicode="&#xe974;" d="M395.636 704h23.273c12.853 0 23.273-10.42 23.273-23.273v-46.545c0-12.853-10.42-23.273-23.273-23.273h-23.273c-12.853 0-23.273 10.42-23.273 23.273v46.545c0 12.853 10.42 23.273 23.273 23.273z" />
<glyph unicode="&#xe975;" d="M1023.942 448.029c0-282.754-229.217-511.971-511.971-511.971s-511.971 229.217-511.971 511.971c0 282.754 229.217 511.971 511.971 511.971s511.971-229.217 511.971-511.971z" />
<glyph unicode="&#xe976;" d="M349.091 703.997c-25.706 0-46.545-20.839-46.545-46.545v-418.909c0-25.706 20.839-46.545 46.545-46.545h237.952l157.685 156.046v309.408c0 25.706-20.839 46.545-46.545 46.545h-349.091zM506.587 564.364h126.11c9.864 0 17.86-7.996 17.86-17.86s-7.996-17.86-17.86-17.86h-126.11c-9.864 0-17.86 7.996-17.86 17.86v0 0c0 9.864 7.996 17.86 17.86 17.86zM413.496 471.273h220.434c9.864 0 17.86-7.996 17.86-17.86v0c0-9.864-7.996-17.86-17.86-17.86h-220.434c-9.864 0-17.86 7.996-17.86 17.86s7.996 17.86 17.86 17.86z" />
<glyph unicode="&#xe977;" d="M744.205 347.168l-156.29-155.607v109.062c0 25.706 20.839 46.545 46.545 46.545h109.744z" />
<glyph unicode="&#xe978;" d="M1024 448c0-282.8-229.2-512-512-512s-512 229.2-512 512 229.2 512 512 512 512-229.2 512-512z" />
<glyph unicode="&#xe979;" d="M326.8 580.6v-359.8c0-12.8 10.4-23.2 23.2-23.2h349.8c14 0 20.8 7.4 20.8 22s0 134.2 0 358.6c-5.8 12.2-23.2 18.2-52 18.2-0.2 0-0.2-114.4 0-343.2 0-13-16.8-21.6-50.2-25.6-160-10-240-14.8-240-14.8 140.6 37 215.8 61.2 225.6 72.2 8.2 6.8 11.2 8.4 10.2 21.8 0.2 101.2 0.2 229 0 383.6-0.2 8.6-9.2 10.2-27.2 5.2-17.4-5-99.2-36-245.6-93.4v0c-8.8-3.4-14.6-12-14.6-21.6v0z" />
<glyph unicode="&#xe97a;" d="M1024 448c0-282.8-229.2-512-512-512s-512 229.2-512 512 229.2 512 512 512 512-229.2 512-512z" />
<glyph unicode="&#xe97b;" d="M662 704h-296c-36.8 0-67.2-30.6-67.2-67.2v-354.8c0-36.8 30.6-67.2 67.2-67.2h296c36.8 0 67.2 30.6 67.2 67.2v354.8c0.2 36.6-30.4 67.2-67.2 67.2z" />
<glyph unicode="&#xe97c;" d="M533.4 670.8v-152.4l48.2 33.2 47.2-33.2v185.6h-95.4v-33.2z" />
<glyph unicode="&#xe97d;" d="M1024 448c0-282.8-229.2-512-512-512s-512 229.2-512 512 229.2 512 512 512 512-229.2 512-512z" />
<glyph unicode="&#xe97e;" d="M353.4 186c-3.8 0-7.4 1.2-10.6 3.4-5.6 4-8.2 10.8-7.2 17.6l28.8 167.2-121.6 118.4c-5 4.8-6.6 12-4.6 18.4s7.8 11.2 14.6 12.2l168 24.4 75.2 152.2c3 6.2 9.4 10 16.2 10s13.2-4 16.2-10l75.2-152.2 168-24.4c6.8-1 12.4-5.8 14.6-12.2s0.4-13.6-4.6-18.4l-121.6-118.4 28.8-167.2c1.2-6.8-1.6-13.6-7.2-17.6s-13-4.6-19-1.4l-150.6 79-150.4-79c-2.6-1.4-5.4-2-8.2-2v0z" />
<glyph unicode="&#xe97f;" d="M1024 448c0-282.8-229.2-512-512-512s-512 229.2-512 512 229.2 512 512 512 512-229.2 512-512z" />
<glyph unicode="&#xe980;" d="M703.8 435.8c0-56.6 0-113.4 0-170 0-14.2 0-28.6 0-42.8 0-7.8 0.6-15.6-2.6-20-4.6-6.2-16-5-27-4.8-19 0-38 0-57 0-6.8 0-20-1.4-25.4 0.4-9.2 3.4-6.2 24-6.2 36.2 0 36 0 71.8 0 107.8-2.8 15.6-16.6 14.2-35 14.2-20.2 0-40.6 0-60.8 0-9.4 0-18.8 0-28.2 0-15.2-2.8-13.8-17.4-13.8-35.6 0-28 0-55.8 0-83.8 0-14 3.4-35.2-7.2-39-6-2.2-20.4-0.4-28-0.4-21 0-42 0-63 0-11.4 0-24.2-1.6-29.2 4.8-3.2 4.4-2.6 12.2-2.6 20 0 14.2 0 28.6 0 42.8 0 56.6 0 113.4 0 170-16 0-32.2 0-48.2 0-7.4 9.6-16.2 22-8.8 39 5 11.6 19.6 23.4 29.2 31.2 20.6 19.2 41.4 38.6 62 57.8 37.8 35.2 75.6 70.6 113.4 105.8 11.2 9 26.8 32.6 49.2 29 20.6-3.4 24.4-11.8 37-22 11-10.2 21.8-20.4 32.8-30.6 47.6-44.4 95.4-88.6 143-133 4.8-4.6 9.4-9.2 14.2-13.8 8-6.6 17.4-14.2 21.8-24.2 6.2-14.4 0-32.2-9-39-16.8 0-33.8 0-50.6 0z" />
<glyph unicode="&#xe982;" d="M605.091 704h23.273c12.853 0 23.273-10.42 23.273-23.273v-46.545c0-12.853-10.42-23.273-23.273-23.273h-23.273c-12.853 0-23.273 10.42-23.273 23.273v46.545c0 12.853 10.42 23.273 23.273 23.273z" />
</font>
</defs>
</svg>
